<?xml version="1.0" encoding="UTF-8"?>
<svg viewBox="0 0 574 405.58701" xmlns="http://www.w3.org/2000/svg">
 <g transform="translate(-104.7 -208.07)">
  <path d="m426.29 580.92c-3.9901-0.83073-11.273-1.76-16.184-2.0649-8.9675-0.5569-19.428-1.9734-30.517-4.1326-6.439-1.2538-11.28-4.8069-9.2768-6.8096 0.64199-0.642 0.89448-2.5312 0.56106-4.1982-0.3426-1.713 0.14396-4.4816 1.119-6.367 1.9811-3.831 3.2055-1.6316-24.592-44.174-8.092-12.385-14.261-22.796-13.71-23.137 0.80033-0.49462-5.0443-11.651-11.051-21.096-0.85241-1.3402-1.8947-1.2065-6.6953 0.85867-4.7349 2.0369-6.4826 2.2707-10.451 1.3981-16.367-3.5989-16.837-3.6259-21.755-1.2502-4.9885 2.4102-10.781 2.8866-15.105 1.2424-1.9423-0.73845-5.8136-0.14497-14.303 2.1926-6.402 1.7628-13.147 3.2341-14.988 3.2695s-4.5375 0.9789-5.9909 2.0966l-2.6426 2.0322 2.8553 8.2436c2.3126 6.6766 3.3835 8.3848 5.634 8.9867 4.277 1.1438 8.7453 5.7752 7.8423 8.1284-0.63005 1.6419-1.583 1.8608-5.526 1.2696-3.0371-0.45544-5.0438-0.26283-5.5345 0.53124-0.42345 0.68516-1.4725 0.97614-2.3312 0.64663s-1.6031-0.23819-1.6543 0.20293-0.21966 1.9499-0.37445 3.3529-0.74075 2.9604-1.3021 3.461c-1.8108 1.6148-16.419 7.0385-24.459 9.0808-4.297 1.0916-10.76 2.776-14.361 3.743-6.8328 1.8346-11.512 1.5728-19.122-1.0695-2.4554-0.85263-5.7544-1.5576-7.3311-1.5665-4.9143-0.02785-14.176-3.2929-17.663-6.2263-1.8346-1.5437-6.2531-3.5619-9.8189-4.4848-9.524-2.4652-13.813-5.042-18.373-11.039-8.5445-11.237-8.1694-26.722 0.90419-37.322 2.2905-2.6759 6.4725-5.9346 9.2934-7.2416s6.2528-3.4234 7.6266-4.7032 5.43-3.2148 9.014-4.3c6.0453-1.8304 7.1522-1.8487 15.316-0.25397 11.505 2.2475 29.942 0.50309 34.104-3.2268 3.5524-3.1838 9.4349-7.1595 10.583-7.1527 0.5191 0.00304-0.56293 1.2836-2.4045 2.8456-2.5729 2.1823-2.8254 2.6992-1.0905 2.2319 5.4215-1.4603 16.025 4.487 28.689 16.091 3.9941 3.6598 7.58 6.3362 7.9687 5.9475s0.70672-0.10501 0.70672 0.63043-0.75337 1.6262-1.6742 1.9796-1.6742 1.5528-1.6742 2.6655c0 3.2535 6.1388 2.3257 32.367-4.8918 3.3762-0.92907 8.9009-2.4334 12.277-3.3429 8.7585-2.3594 16.742-5.5118 16.742-6.6111 0-0.51767-0.62781-0.62322-1.3951-0.23453s-0.59767 0.04163 0.37699-0.77121 1.5693-2.0796 1.3215-2.8149c-0.79207-2.3501-41.159-16.478-51.086-17.88-3.0192-0.42632-7.7129 0.37631-14.774 2.5264-2.3962 0.72961-2.4461 0.60845-1.2332-2.9935 0.69525-2.0646 1.7367-4.3597 2.3143-5.1001 1.5246-1.9543 0.03514-3.6762-3.18-3.6762-1.5346 0-2.5152-0.44515-2.1789-0.98922s-0.50309-1.2806-1.8652-1.6368c-2.792-0.73014-7.7478 3.2895-10.462 8.4856-1.5988 3.0609-1.5928 3.0693 2.1924 3.0693 5.1751 0 10.771 1.1985 10.771 2.3068 0 0.50141-3.4266 0.62438-7.6147 0.27327-4.7384-0.39726-8.5021-0.16345-9.9641 0.61898-3.1737 1.6985-5.7288 0.51951-6.595-3.0431-0.39397-1.6204-2.1475-4.596-3.8967-6.6124s-3.1804-4.1182-3.1804-4.6708c0-2.9588 2.4023-6.5312 4.796-7.1319 2.1019-0.52753 2.8845-1.6467 3.416-4.8849 0.96854-5.9015 4.5567-11.256 8.1468-12.157 1.6691-0.41893 4.8716-2.6925 7.1165-5.0524 2.7156-2.8547 5.0641-4.2907 7.0171-4.2907 2.6898 0 2.8444-0.23954 1.847-2.8629-0.59867-1.5746-1.0885-3.0318-1.0885-3.2381 0-1.1102 8.9943-5.714 12.835-6.5698 5.7319-1.2772 17.155-1.4749 31.251-0.54088 10.185 0.67493 10.846 0.6025 7.563-0.8283l-3.598-1.5679 0.52038-10.333c0.2862-5.683 0.73803-19.962 1.004-31.73 0.42281-18.705 0.2632-21.482-1.2688-22.07-1.5384-0.59036-1.6563-2.8808-0.9653-18.757 0.77774-17.87 1.7671-25.003 1.7671-12.74 0 6.0653 0.11885 6.3246 2.8987 6.3246h2.8987l-0.75422-18.137c-0.79181-19.041-1.1849-22.043-2.8862-22.043-0.57249 0-1.0762 5.148-1.1194 11.44s-0.52124 12.445-1.0624 13.672c-0.59387 1.3472-0.72368-3.0814-0.32741-11.17l0.65659-13.402-2.8999-1.552c-1.8504-0.99033-2.8143-2.3718-2.6634-3.8172 0.16563-1.5865-0.59649-2.4708-2.5438-2.9514-3.5341-0.87231-5.3609-5.5698-3.6371-9.353 2.0917-4.5907 7.5105-6.5002 20.927-7.3743 6.7524-0.43993 15.2-1.6806 18.772-2.7571 7.3976-2.2293 10.362-1.8059 15.065 2.1521 1.9797 1.6658 4.7136 2.7906 6.7827 2.7906 2.337 0 3.4662 0.5454 3.4662 1.6742 0 2.3912 13.641 2.3912 15.625 0 1.683-2.0279 7.3722-2.2196 8.2778-0.27902 0.52084 1.1161 0.78127 1.1161 1.3021 0 1.0504-2.2508 4.0952-1.5641 8.2163 1.853l3.8449 3.1881-3.2832 3.4786c-3.2924 3.4883-6.4633 4.4523-7.7574 2.3584-0.38077-0.61611-1.916-0.81307-3.4117-0.43768s-3.5994 0.31172-4.675-0.14149c-2.9458-1.2412-23.092-0.54688-23.58 0.81267-0.9837 2.7398-4.8452 5.3511-7.913 5.3511-6.424 0-6.184 1.5056 6.2278 39.064l19.638 59.421c4.4106 13.345 8.3143 23.786 8.675 23.202s2.6472-1.8819 5.0812-2.885c7.5323-3.1043 11.843-5.0555 23.399-10.592 6.1386-2.941 13.421-6.348 16.184-7.571s9.5427-4.3499 15.067-6.9486 14.275-6.6268 19.445-8.9513 9.8406-5.0141 10.379-5.977 1.9297-1.7508 3.0906-1.7508 2.4213-0.50225 2.8007-1.1161 1.8543-1.1161 3.2775-1.1161 3.1882-0.72351 3.9221-1.6078 2.0205-1.3445 2.8591-1.0227 2.1783-0.46141 2.9771-1.7405 2.3418-2.3256 3.4288-2.3256 15.908-6.8242 32.936-15.165 32.968-15.965 35.424-16.944c5.4367-2.1663 5.8636-2.7505 5.9378-8.1242 0.14095-10.213 6.2418-15.395 22.365-18.995 9.8311-2.195 11.639-2.3349 12.504-0.96701 1.4425 2.2819 0.68982 3.776-2.1096 4.1879-1.6097 0.23686-2.4238-0.23177-2.4238-1.3951 0-0.96348-0.70635-1.7518-1.5697-1.7518-1.0218 0-1.407 0.87653-1.1037 2.5112 0.25627 1.3812 0.17679 1.9116-0.1766 1.1788s-1.4056-1.0396-2.3382-0.68176c-1.3749 0.52759-1.414 0.82664-0.20693 1.581 0.94523 0.59068 0.16529 0.83957-2.1364 0.68176-1.9938-0.1367-3.6261-0.65487-3.6274-1.1515s-0.55808-0.55941-1.2375-0.13952c-0.86111 0.53221-0.77659 1.0541 0.27903 1.723 1.1266 0.71388 0.91908 0.96386-0.81093 0.97659-3.1852 0.0234-4.0602-1.1238-2.4085-3.1579 0.82747-1.0191-0.57898-0.61094-3.4922 1.0134-5.5203 3.078-10.212 8.117-10.145 10.897 0.02917 1.2191 0.64076 0.76764 1.7615-1.3004 0.94424-1.7424 1.9693-2.9154 2.2779-2.6068s0.0182 1.5756-0.6454 2.8156c-1.8129 3.3875-1.5016 3.7244 1.8628 2.0158 1.6881-0.85731 7.7066-2.4005 13.374-3.4294l10.305-1.8706 11.951 3.9992c6.5733 2.1996 12.609 4.5448 13.412 5.2116 2.6632 2.2103 1.7404 7.2846-1.7808 9.7919-1.7829 1.2695-3.7304 2.3082-4.3278 2.3082s-1.6907 0.72844-2.4296 1.6188c-1.1124 1.3404-0.70407 1.8029 2.3746 2.6896 2.9279 0.84328 3.1688 1.0922 1.1334 1.1715-1.4215 0.05536-3.4305-0.34223-4.4644-0.88355-2.6726-1.3993-7.7349 0.59802-5.9754 2.3576 0.98963 0.98963 1.6182 0.99245 2.599 0.01166 0.7966-0.79659 3.0829-1.0484 5.9505-0.65534 8.4916 1.1639 14.362-4.0935 12.253-10.973-0.4371-1.4255-2.8-6.7051-5.2508-11.732-4.9818-10.219-13.587-18.928-17.652-17.865-1.196 0.31275-2.1745 0.17197-2.1745-0.31286 0-1.3128 5.3106-2.0813 6.4574-0.93449 0.57837 0.57835 2.3085 0.49122 4.1503-0.20902 3.875-1.4733 5.8279 0.60506 3.2476 3.4562-1.4971 1.6543-1.3193 1.8988 1.8404 2.5308 1.9237 0.38473 4.3272 0.19305 5.341-0.42596 1.3883-0.8476 1.0446-0.94373-1.3923-0.38932-2.4791 0.56401-3.0279 0.39979-2.3468-0.70227s3.5853-1.2735 12.302-0.74012c11.886 0.72726 15.044 1.3839 15.044 3.1278 0 0.57078-1.0432 0.47764-2.3233-0.20743-3.7004-1.9804-25.579 0.18126-25.579 2.5273 0 0.68752 1.6109 0.81601 4.1824 0.3336 2.3003-0.43155 8.9551-0.96164 14.788-1.178s14.775-0.94253 19.87-1.6137 11.122-1.1835 13.393-1.1386 8.4363-0.52565 13.701-1.268c11.732-1.6543 13.572-1.1243 13.1 3.7736l-0.35031 3.635-13.393 1.1377c-7.3663 0.62575-12.675 1.4092-11.797 1.7411 2.9995 1.134 0.3051 4.0534-4.5696 4.9513-2.6615 0.49021-8.8571 0.79366-13.768 0.67431s-10.436 0.24211-12.277 0.80324c-3.487 1.0625-3.3079 1.2714 2.6541 3.0963 1.0906 0.33383 1.3544 1.6018 0.90692 4.3594l-0.63104 3.8886 4.3946-0.70273c2.7944-0.44683 4.3946-0.27175 4.3946 0.48082 0 1.9535-9.3553 3.6978-11.784 2.1971-0.64856-0.40083-2.155-0.54631-3.3476-0.32329s-2.5497 0.44392-3.0157 0.49088-2.475 1.6742-4.4644 3.616c-2.5666 2.5051-2.9688 3.2888-1.385 2.6983 1.2277-0.45772 4.856-1.1109 8.063-1.4515 3.3154-0.35214 5.5443-1.0827 5.1668-1.6936-0.36517-0.59085 0.46177-0.47181 1.8376 0.26453s2.1957 0.84389 1.8218 0.23898 0.55252-1.3354 2.0586-1.6233 2.9687 0.03136 3.2503 0.70946c0.74542 1.7949 2.8763-1.5792 2.8971-4.5874 0.02594-3.7524 3.6339-5.1668 8.2548-3.2361 6.3337 2.6464 6.442 8.4702 0.21946 11.8-2.366 1.2663-3.352 1.2852-5.5545 0.10641-3.0613-1.6384-24.785-0.61995-27.124 1.2716-0.73787 0.59669-2.378 0.75594-3.6449 0.35387-2.0088-0.63757-6.7929 0.32862-12.313 2.4868-3.7534 1.4674-18.457 1.0671-21.886-0.59585s-3.6109-1.5991-16.184 5.9018c-6.9922 4.1716-14.973 8.8478-17.736 10.392s-6.8959 3.9827-9.1857 5.4198-4.3949 2.6129-4.6781 2.6129-6.6968 3.6765-14.253 8.1699c-30.518 18.149-38.69 22.283-42.749 21.624-3.4412-0.55843-4.1066-0.17932-7.4729 4.2581-2.5913 3.4158-6.363 6.2752-12.624 9.5707-4.9109 2.5848-10.262 5.6298-11.891 6.7668s-3.2443 2.0672-3.5886 2.0672-6.1682 3.2988-12.942 7.3306c-10.26 6.1066-12.316 7.7811-12.316 10.029 0 5.3334-2.8212 13.083-6.1227 16.819-2.516 2.8472-4.7138 4.0496-8.7172 4.7695-2.9442 0.52941-5.6274 1.2369-5.9628 1.5723s0.19008 3.3611 1.1677 6.7239 1.7774 8.4109 1.7774 11.218c0 4.142-0.49995 5.4316-2.6526 6.8421l-2.6526 1.7381 2.0269 7.4955c1.1148 4.1226 4.2492 15.28 6.9653 24.795s8.0814 28.6 11.923 42.412c12.014 43.197 10.022 38.668 17.707 40.251 3.4679 0.71462 7.7087 2.0197 9.424 2.9003 3.3506 1.72 7.4734 7.5688 7.4802 10.612 0.00459 2.0473 1.6 2.5217 14.447 4.2956 4.5671 0.63067 8.5233 1.3662 8.7916 1.6344s2.2687-0.2564 4.4455-1.1659c3.7826-1.5805 4.085-1.5322 6.8339 1.09 2.1379 2.0394 3.3528 2.4748 4.7334 1.6961 2.5096-1.4154 4.8439-0.35624 6.311 2.8636 0.9826 2.1566 0.82259 3.1544-0.83382 5.2-1.8809 2.3228-2.3134 2.4063-5.2501 1.0138-1.7602-0.83462-6.465-1.6404-10.455-1.7907s-10.268-0.80739-13.951-1.4603c-11.658-2.0667-15.784-2.4438-13.951-1.2753 0.92079 0.58706 2.9298 1.1435 4.4644 1.2365 2.63 0.15937 2.646 0.19687 0.27903 0.65277-1.3812 0.26603-2.5112 0.86729-2.5112 1.3361 0 1.2974 3.6982 1.081 5.5158-0.32276 1.271-0.98163 1.4085-0.90975 0.65398 0.3418-0.71646 1.1885-0.49093 1.4066 0.90187 0.87211 1.2127-0.46535 1.8572-0.14384 1.8572 0.92643 0 2.0728-7.52 2.0149-17.858-0.13738zm6.6966-1.6653c0-0.97529-9.48-3.1497-16.742-3.8401-3.3516-0.31863-2.1712 0.16342 3.5486 1.449 4.7141 1.0596 8.8576 2.2195 9.2079 2.5776 0.92265 0.94328 3.9851 0.79993 3.9851-0.18653zm40.504-2.1402c0.32128-1.2286 0.12874-1.9523-0.42788-1.6083s-1.012 1.3492-1.012 2.2338c0 2.3101 0.75839 1.9806 1.4399-0.62546zm-66.196-1.6996c-0.7765-0.93562-1.6417-1.4713-1.9226-1.1904-0.774 0.77401 0.79863 2.8915 2.1475 2.8915 0.74009 0 0.65541-0.6404-0.22491-1.7011zm62.95-0.031c0.38114-0.99324 0.19403-1.4412-0.43864-1.0502-0.60683 0.37503-1.1033 1.1545-1.1033 1.7321 0 1.6054 0.79999 1.2517 1.542-0.6819zm-68.508 0.11048c0-1.818-2.8393-6.1911-4.0196-6.1911-0.78603 0-1.788-0.58064-2.2266-1.2903-0.57065-0.92332 0.21199-1.0884 2.7516-0.58049 3.3186 0.66371 3.469 0.56007 2.3153-1.5955-0.67858-1.2679-0.95379-2.5854-0.61158-2.9276s0.91235 0.13389 1.267 1.058c0.53099 1.3837 1.865 1.0225 7.56-2.0471 8.7838-4.7345 12.209-4.8297 15.462-0.42971 1.3615 1.8416 3.3748 3.3483 4.4739 3.3483 1.7465 0 1.8369-0.38685 0.71749-3.0693-1.8623-4.4625-6.5213-8.082-10.39-8.0721-1.8416 0.00473-6.3618 1.6016-10.045 3.5487-5.6987 3.0126-7.8609 3.5368-14.509 3.5177-4.297-0.01234-10.393-0.81451-13.547-1.7826-5.8032-1.7814-8.2175-1.1747-8.2175 2.0653 0 1.5332 5.7506 3.7923 9.6534 3.7923 1.443 0 2.6237 0.55598 2.6237 1.2355s0.75337 0.94642 1.6742 0.59308c1.1921-0.45743 1.7143 0.15099 1.8137 2.1128 0.07673 1.5154 0.2023 3.3604 0.27903 4.1001s1.3951 1.6941 2.9298 2.121c3.2375 0.90053 10.045 1.2347 10.045 0.4931zm-11.834-7.4932c-0.31615-0.51155 0.45931-0.93009 1.7232-0.93009s2.2981 0.41854 2.2981 0.93009c0 1.2094-3.2739 1.2094-4.0213 0zm59.269 6.8826c-0.39121-0.63301 0.54647-1.1161 2.1663-1.1161 1.7947 0 2.8561-0.62216 2.8561-1.6742 0-1.1086-1.1088-1.6742-3.2824-1.6742-3.8521 0-5.2733 1.6662-3.3736 3.9552 1.5299 1.8434 2.6797 2.2018 1.6336 0.50917zm18.416 0c0-0.61386-1.0045-1.1161-2.2322-1.1161s-2.2322 0.50225-2.2322 1.1161 1.0045 1.1161 2.2322 1.1161 2.2322-0.50224 2.2322-1.1161zm-64.349-1.7223c-0.3635-0.94726-0.90028-1.4829-1.1928-1.1904s-0.20087 1.0676 0.20375 1.7223c1.1005 1.7807 1.7438 1.4348 0.98909-0.53194zm55.706-0.36842c0.42049-1.608 0.06398-1.9645-1.544-1.544-2.3962 0.62663-2.7428 2.0695-0.69559 2.8955 0.76732 0.30962 1.4621 0.6026 1.544 0.65106s0.39488-0.8527 0.69559-2.0026zm-74.25 0.20116c-1.0859-0.28297-2.5927-0.26437-3.3483 0.04136s0.13285 0.53726 1.9744 0.51451 2.4598-0.27289 1.3739-0.55587zm51.85 0.01103c-0.80569-0.32241-1.7683-0.28276-2.1392 0.08811s0.28833 0.63466 1.4649 0.5862c1.3002-0.05355 1.5647-0.31803 0.67431-0.67431zm5.6869-1.4403c0.46668-1.7846-0.13044-2.3352-3.1457-2.9009-3.9632-0.74349-6.5514 0.11991-5.4931 1.8324 0.35317 0.57144 1.617 1.039 2.8085 1.039s2.1663 0.50225 2.1663 1.1161c0 2.0569 3.0809 1.1433 3.664-1.0866zm21.541-0.02952c0.86964 0 1.5812-0.50224 1.5812-1.1161s-0.4018-1.1161-0.89289-1.1161c-1.3214 0-3.5848 2.502-3.4834 3.8506 0.04846 0.64455 0.34144 0.5441 0.65106-0.22322s1.2745-1.3951 2.1441-1.3951zm-18.069-0.65131c0.41713-1.087 0.16769-1.5972-0.64791-1.3254-1.6684 0.55614-2.587 3.0928-1.12 3.0928 0.59934 0 1.3949-0.79534 1.7679-1.7674zm-69.08-0.46479c-0.37939-0.61386-1.5391-1.1084-2.5771-1.099-1.6265 0.01473-1.6559 0.16662-0.21316 1.099 2.1858 1.4125 3.6633 1.4125 2.7903 0zm46.413-0.07428c6.9554 1.6032 8.5013 1.4667 9.0949-0.80323 0.45135-1.7259-0.34729-2.0263-5.9481-2.2369-3.5582-0.13381-7.6884-0.70675-9.1783-1.2732-1.814-0.6897-3.1244-0.6144-3.9667 0.22791-1.8899 1.8899-1.5206 3.0436 0.97439 3.0436 1.2277 0 2.2399 0.62781 2.2493 1.3951 0.01323 1.0791 0.22436 1.0684 0.93199-0.04698 0.70599-1.1128 2.0401-1.1828 5.8425-0.30632zm-13.279-0.68814c-0.80569-0.32241-1.7683-0.28277-2.1392 0.0881s0.28833 0.63466 1.4649 0.5862c1.3002-0.05355 1.5647-0.31802 0.67431-0.6743zm-0.98179-3.6248c-0.33508-1.2813-1.1977-1.9116-2.1277-1.5547-2.3225 0.89122-1.8944 3.7097 0.56354 3.7097 1.5528 0 1.9754-0.58227 1.5642-2.155zm-32.711-0.51587c0-0.24126-0.77945-0.73775-1.7321-1.1033-0.99325-0.38114-1.4412-0.19403-1.0502 0.43864 0.65545 1.0605 2.7824 1.5686 2.7824 0.66469zm36.853-1.2611c1.1795-1.4212 1.1104-1.5845-0.4214-0.99669-1.0076 0.38665-1.832 1.1515-1.832 1.6997 0 1.4353 0.64608 1.2337 2.2534-0.70302zm9.7993-2.3514c-1.3278-1.3278-2.673-1.5859-4.9826-0.95587l-3.1638 0.863 2.7903 0.84461c1.5346 0.46453 3.7768 0.89468 4.9826 0.95587 2.0263 0.10282 2.0546-0.02653 0.37348-1.7076zm-33.321-17.81c-2.4942-8.5407-4.9382-15.937-5.431-16.435s-5.8304-1.3736-11.861-1.9442-11.876-1.3264-12.989-1.6796-2.0235-0.27177-2.0235 0.18103 3.2016 5.8858 7.1148 12.073 8.3078 13.381 9.7659 15.985c3.6605 6.5375 5.6936 6.316 3.6724-0.4002-1.5558-5.1695-1.2484-7.742 0.77548-6.4911 0.5964 0.3686 0.75902 1.6953 0.36135 2.9482-0.44345 1.3972-0.29044 2.0107 0.3957 1.5866 1.5092-0.93275 2.6884 2.4258 1.8164 5.1733-0.46558 1.4669-0.28571 1.9569 0.53275 1.451 0.67962-0.42002 1.2357-0.31598 1.2357 0.23123 0 0.7986 9.839 3.4987 10.886 2.9874 0.15565-0.07601-1.7577-7.126-4.252-15.667zm-5.0431 11.681c-0.29871-0.48332-0.21719-2.1773 0.18113-3.7644 0.50457-2.0103 0.30334-2.7876-0.66341-2.5626-0.76321 0.17767-1.6412-0.37468-1.951-1.2274-0.34501-0.94959-0.07468-1.2485 0.69756-0.7712 0.69349 0.4286 1.2609 0.16368 1.2609-0.58872s0.34421-1.0238 0.76491-0.60308c0.74221 0.74222 3.6489 8.4337 3.6827 9.7451 0.02522 0.97711-3.3477 0.78381-3.9728-0.2277zm17.894 2.7226 3.9351-1.8765-2.2231-3.7678c-1.2227-2.0723-2.2231-4.4095-2.2231-5.1938s-0.93496-4.3969-2.0777-8.028c-7.294-23.177-8.2356-27.338-5.2682-23.28 1.9196 2.6252 3.0282 1.854 2.1518-1.4971-0.50514-1.9317-1.2037-2.3106-3.293-1.7862-2.3034 0.57811-2.9275 0.02252-4.7494-4.2276-2.9418-6.863-5.7837-20.037-4.9829-23.099 0.48799-1.8661 0.91747-2.1695 1.572-1.1104 0.49531 0.80144 1.2506 1.1072 1.6784 0.67938s0.22499-1.4439-0.45066-2.258-0.93976-2.5841-0.58692-3.9333 0.13078-2.4532-0.49344-2.4532-1.7537-2.6368-2.5099-5.8596-1.8453-6.7699-2.4202-7.8825-1.0864-3.4706-1.1367-5.24c-0.0827-2.9088-0.38884-3.1575-3.1952-2.5962-2.8374 0.56748-3.2017 0.25093-4.2451-3.6889-4.0964-15.468-4.0226-15.001-2.5175-15.931 0.98794-0.61058 0.30736-1.1277-2.1242-1.614-6.1474-1.2295-8.6877-0.84544-9.4074 1.4222-0.7138 2.249 0.20417 5.4418 10.616 36.926 3.5527 10.743 7.5616 23.299 8.9088 27.903s3.3542 10.254 4.4601 12.556l2.0107 4.1854-6.3163-0.08818c-7.9891-0.11152-19.582-2.3164-25.011-4.757-2.302-1.0348-4.1854-2.1132-4.1854-2.3966 0-0.77024 7.1665 0.77209 7.8127 1.6814 0.53856 0.75784 18.974 4.4804 18.974 3.8313 0-0.17595-2.2089-5.2581-4.9087-11.294s-6.4318-14.489-8.2932-18.786l-3.3845-7.8127-8.7274-0.79785c-4.8001-0.43881-9.8301-1.0693-11.178-1.4011-2.4249-0.59701-2.4174-0.52477 0.71628 6.9364 1.7417 4.1468 4.4767 10.442 6.0778 13.989 3.284 7.2757 3.3381 7.5019 1.795 7.5019-0.61386 0-1.1161-0.46558-1.1161-1.0346s-1.6743-4.7126-3.7207-9.2079-5.3972-12.442-7.4463-17.66c-5.1667-13.157-5.4186-13.471-9.0315-11.26l-2.8989 1.7735 6.5262 10.987c3.5894 6.0427 6.5262 12.106 6.5262 13.474 0 3.9338 18.594 31.104 21.545 31.482l15.072 1.9195c6.9412 0.88321 12.759 1.7862 12.929 2.0067s1.1032 3.1633 2.0741 6.5395c2.1692 7.5433 7.3597 24.606 8.0635 26.507 0.68608 1.8536 1.9766 1.7606 6.678-0.48137zm-6.0916-4.8201c0-1.4302 0.79027-1.4302 1.6742 0 0.37939 0.61386 0.15791 1.1161-0.49218 1.1161s-1.182-0.50225-1.182-1.1161zm-1.1161-3.2824c0-0.65009 0.50225-1.182 1.1161-1.182 1.4302 0 1.4302 0.79027 0 1.6742-0.61385 0.37939-1.1161 0.15791-1.1161-0.49218zm-5.9629-21.974c-2.9051-10.208-5.0516-18.79-4.77-19.072s1.3714 2.42 2.4217 6.0036 2.8187 9.5292 3.9297 13.212c4.3969 14.576 5.3432 18.416 4.539 18.416-0.46106 0-3.2152-8.3519-6.1203-18.56zm-21.661-6.3056c-3.8366-0.61407-6.9757-1.5486-6.9757-2.0768 0-1.2474 0.22834-1.2334 9.8355 0.59872 13.784 2.6286 11.548 3.7841-2.8599 1.4781zm14.788-17.547c-0.41903-1.3202-0.51074-2.6516-0.20381-2.9585s0.90089 0.52214 1.3199 1.8424 0.51074 2.6516 0.20381 2.9585-0.90089-0.52214-1.3199-1.8424zm-2.1525-7.3344c-0.41052-1.6357-0.49529-3.2251-0.18836-3.532s0.89394 0.78023 1.3045 2.4159 0.49528 3.2251 0.18835 3.532-0.89393-0.78022-1.3045-2.4159zm-2.2322-7.8127c-0.41052-1.6357-0.49529-3.2251-0.18836-3.532s0.89394 0.78022 1.3045 2.4159 0.49528 3.2251 0.18835 3.532-0.89393-0.78023-1.3045-2.4159zm-2.1071-7.6017c-0.41959-1.0934-0.73105-2.8259-0.69213-3.8499 0.04685-1.2332 0.43451-0.95196 1.148 0.83274 0.59247 1.482 0.90393 3.2145 0.69213 3.8499s-0.72839 0.26068-1.148-0.83274zm6.7401-1.4522c-0.65943-1.1269-6.3869-21.099-6.3869-22.272 0-3.0814 2.481 2.8871 4.9057 11.802 2.5398 9.3377 3.0886 13.217 1.4812 10.47zm-9.0974-7.6877c-0.41052-1.6357-0.53116-3.1892-0.26807-3.4523s0.81421 0.85994 1.2247 2.4956 0.53117 3.1892 0.26808 3.4523-0.81421-0.85995-1.2247-2.4956zm-4.5453-14.594c-1.6134-5.4345-3.1363-10.509-3.3843-11.276s-0.05554-1.3951 0.42763-1.3951c1.0209 0 7.2102 21.232 6.4198 22.022-0.29137 0.29137-1.8498-3.9167-3.4631-9.3512zm-4.3088-15.461c-0.35334-0.92078-0.15595-1.6742 0.43864-1.6742s1.0811 0.75338 1.0811 1.6742c0 2.1437-0.69712 2.1437-1.5197 0zm-1.4434-5.6287c-0.36351-0.94726-0.41153-1.9717-0.10672-2.2765s0.82207 0.47023 1.1495 1.7223c0.6955 2.6596-0.07727 3.0703-1.0428 0.55418zm51.597 115.43c0.33359-0.53976-0.91409-0.98138-2.7726-0.98138-2.4257 0-3.2112 0.43757-2.784 1.5508 0.61617 1.6057 4.4555 1.2123 5.5567-0.56944zm-11.324-13.737c-0.41052-1.6357-0.96166-2.7587-1.2247-2.4956s-0.14245 1.8166 0.26807 3.4523 0.96166 2.7587 1.2247 2.4956 0.14245-1.8166-0.26808-3.4523zm-2.2322-7.8127c-0.41052-1.6357-0.96166-2.7587-1.2247-2.4956s-0.14245 1.8166 0.26807 3.4523 0.96166 2.7587 1.2247 2.4956 0.14245-1.8166-0.26808-3.4523zm-211.88-4.9396c-0.32411-0.52442-3.6245-1.2707-7.3343-1.6585-11.327-1.1839-17.339-5.423-24.133-17.017-3.9354-6.7152-4.7226-16.014-2.0698-24.448 2.549-8.1039 11.06-17.72 18.924-21.383 3.0712-1.4302 4.6995-2.6052 3.6186-2.6112-3.4448-0.01911-11.892 4.5832-16.1 8.7718-2.2391 2.2288-4.5269 3.9144-5.0841 3.7458s-0.74319 0.12997-0.41336 0.66364-0.38621 3.565-1.5912 6.7363c-2.646 6.9638-2.9093 19.051-0.55996 25.709 4.3842 12.426 18.056 22.092 31.639 22.369 2.0313 0.04143 3.428-0.35375 3.1039-0.87817zm209.65-2.8732c-0.41052-1.6357-0.96166-2.7587-1.2247-2.4956s-0.14245 1.8166 0.26807 3.4523 0.96166 2.7587 1.2247 2.4956 0.14245-1.8166-0.26808-3.4523zm-238.99-2.8752c-2.2453-2.1045-4.7508-3.3431-6.7623-3.3431-1.7575 0-4.1704-0.73719-5.362-1.6382-1.9763-1.4944-1.8242-1.5434 1.7325-0.55805 5.8504 1.6207 5.8762 1.5572 2.0889-5.1536-4.7547-8.4249-5.1488-19.921-1.0298-30.04 3.152-7.7435 7.8377-14.196 9.7734-13.459 0.76842 0.29267 1.0919-0.13227 0.75977-0.9979-0.31818-0.82918-2.4272-1.8824-4.6866-2.3406-3.8942-0.7896-3.9628-0.87668-1.3178-1.6726 1.5346-0.46181 2.0369-0.92937 1.1161-1.039s-0.29298-0.70382 1.3951-1.3204 3.0693-1.538 3.0693-2.0476c0-1.6647-5.3092 0.47502-10.796 4.3509-5.7113 4.0345-5.7235 3.9694 1.1576 6.1692 2.2706 0.72588 2.1533 2.2687-0.76954 10.123-1.5377 4.1323-1.9377 4.4349-5.3924 4.0789-4.8166-0.49631-6.7308-2.1322-5.9356-5.0726 0.52037-1.9241 0.42955-2.0268-0.49757-0.56262-0.62377 0.98507-1.6922 5.3877-2.3742 9.7836-1.3178 8.4931-0.34934 16.33 2.7486 22.243 2.321 4.4304 9.1193 10.586 12.053 10.913 4.273 0.47712 8.8652 2.6324 8.1331 3.8172-0.38563 0.62395 0.44798 1.1159 1.886 1.113 2.4727-0.00496 2.4326-0.1406-0.98971-3.3483zm-15.709-11.346c-2.6213-0.58669-4.4742-1.5388-4.1177-2.1157 0.40013-0.64742 1.4488-0.62057 2.7394 0.07014 1.1501 0.61551 3.1286 1.1191 4.3967 1.1191s2.3056 0.50224 2.3056 1.1161-0.12556 1.0623-0.27902 0.99658-2.4237-0.59955-5.045-1.1862zm47.939 12.467c2.4939 0 25.467-10.857 25.467-12.036 0-2.1327-1.4988-2.1698-7.167-0.17759-8.5227 2.9955-18.8 4.3997-32.842 4.4872-9.8562 0.06143-12.2 0.37752-11.737 1.5831 0.72135 1.8798 3.3226 3.0174 7.6601 3.3502 4.5318 0.34764 4.8365 0.56818 2.2322 1.616-1.6585 0.66727-0.51109 1.095 4.4644 1.6644 3.6832 0.42146 7.45 0.87898 8.3708 1.0167s1.8416-0.14431 2.0462-0.62674 0.88209-0.87714 1.5055-0.87714zm-12.481-1.9672c0-0.58331 3.3902-1.385 7.5337-1.7816s9.9194-1.4492 12.835-2.3391 5.3015-1.2144 5.3015-0.72099c0 1.109-11.909 4.2286-19.811 5.1896-3.4577 0.42052-5.8596 0.27789-5.8596-0.34794zm31.251-8.0119c0-0.65008 0.50225-1.182 1.1161-1.182 1.4302 0 1.4302 0.79027 0 1.6742-0.61385 0.37939-1.1161 0.15791-1.1161-0.49218zm-12.841 11.097c1.7075-0.64918 2.611-1.6303 2.1653-2.3514-0.4669-0.75547-1.0364-0.82145-1.4623-0.16944-0.38366 0.58735-2.2043 1.6058-4.0459 2.2633s-2.5021 1.235-1.4678 1.2834 3.199-0.41319 4.8106-1.0259zm10.608-4.0386c0-0.23533-1.0045-0.42788-2.2322-0.42788s-2.2322 0.45523-2.2322 1.0116 1.0045 0.74894 2.2322 0.42788 2.2322-0.77629 2.2322-1.0116zm10.595-0.4151c0.39102-0.63267-0.05698-0.81978-1.0502-0.43864-1.9336 0.74198-2.2873 1.542-0.68189 1.542 0.57763 0 1.3571-0.4965 1.7321-1.1033zm7.8206-3.3611c4.3636-2.8899 2.8123-2.8932-1.9262-0.00418-2.0099 1.2254-3.1521 2.2266-2.5382 2.2249s2.6228-1.0011 4.4644-2.2207zm-11.44 0.37693c-0.76733-0.30962-2.023-0.30962-2.7903 0s-0.13951 0.56295 1.3951 0.56295 2.1625-0.25333 1.3951-0.56295zm164.39-1.214c-1.9445-5.0157-9.3298-28.019-10.029-31.238-0.89826-4.1347-0.9898-4.2152-6.0261-5.2961-3.5443-0.76072-3.6958-0.66609-2.9166 1.8219 0.45203 1.4434 2.2599 5.7759 4.0175 9.6279s3.1956 7.1923 3.1956 7.4229 2.014 4.7382 4.4757 10.017c2.8808 6.1776 5.1108 9.5977 6.258 9.5977 1.2418 0 1.5527-0.5923 1.0251-1.9532zm-241.82-3.3483c-0.84132-1.0742-2.4557-2.8055-3.5874-3.8471s-1.7514-2.3898-1.3768-2.9957-0.13958-3.1524-1.1424-5.6588c-3.0753-7.686-1.4703-19.372 3.6865-26.841l1.9265-2.7903-2.3575 2.0214c-1.7988 1.5424-2.4745 1.6746-2.8514 0.55805-0.5426-1.6077-4.231 4.7175-4.1584 7.131 0.02403 0.7978 0.78511-0.25774 1.6913-2.3457s1.9317-3.5121 2.279-3.1649 0.09138 1.6403-0.56859 2.8734-1.7146 4.6663-2.3437 7.6293c-1.0975 5.1693-0.30739 10.536 2.7647 18.78 0.4575 1.2277-0.50062 0.22322-2.1292-2.2322-2.2156-3.3405-2.7743-3.762-2.2195-1.6742 0.80671 3.0358 4.8423 8.8208 8.5872 12.31 2.9247 2.7248 3.8388 2.85 1.7998 0.24641zm59.789 0.19998c5.4903-0.96035 11.704-2.4655 13.809-3.3448s4.7355-1.5987 5.8469-1.5987c2.1222 0 3.9217-3.6509 2.7411-5.5612-0.7582-1.2268 4.2078-6.716 6.0759-6.716 0.64176 0 1.1745-0.87893 1.1839-1.9532 0.01434-1.6382 0.18455-1.6884 1.0554-0.31135 1.2828 2.0284 2.5702 0.98215 1.672-1.3588-0.69636-1.8147-4.9767-1.4096-4.9767 0.47101 0 0.57849-0.55586 0.70826-1.2353 0.28837-0.86078-0.53199-0.77619-1.0499 0.27903-1.7083 1.7031-1.0626 0.23755-4.4102-2.3012-5.2565-1.1434-0.38114-1.1528 0.04531-0.04782 2.1658l1.376 2.6404-2.9002-2.6668c-2.8208-2.5938-2.9818-2.6134-5.8783-0.71549-2.8131 1.8432-2.9408 2.3074-2.3063 8.3788l0.67181 6.4275-6.3851 1.3198c-8.9379 1.8475-29.054 2.7818-33.73 1.5666-5.5733-1.4485-7.8186-6.3862-7.7761-17.101 0.02596-6.5527 0.62171-9.5726 2.7429-13.904 1.4904-3.0432 2.5629-5.68 2.3833-5.8596s-2.1922 1.5394-4.4727 3.8199c-10.339 10.339-12.618 28.694-4.9237 39.661 2.1309 3.0374 2.2831 3.0692 14.633 3.0657 6.8641-0.00197 16.972-0.78931 22.463-1.7496zm197.06-0.59842c0-0.54817-0.4478-0.99669-0.99511-0.99669s-1.3626-1.3812-1.8118-3.0693-1.0384-2.4693-1.3095-1.736 0.05966 2.3656 0.73493 3.6273c0.88684 1.6571 0.88865 2.2941 0.00652 2.2941-0.67169 0-0.92441 0.48031-0.56158 1.0674 0.76691 1.2409 3.9365 0.28532 3.9365-1.1868zm-262.28-0.99669c-0.65705-1.2277-1.5783-2.2322-2.0473-2.2322s-1.5019-1.7955-2.2954-3.9899-1.7154-3.7173-2.0486-3.3841c-1.0285 1.0285 2.1532 7.8249 4.6161 9.8604 3.0039 2.4827 3.2231 2.4513 1.7752-0.25421zm22.322 0.55805c0-0.92078-0.48649-1.6742-1.0811-1.6742s-0.79199 0.75337-0.43866 1.6742c0.82261 2.1437 1.5197 2.1437 1.5197 0zm71.431-0.55805c0-1.4532-5.2404-1.4532-6.1386 0-0.40243 0.65116 0.73248 1.1161 2.7244 1.1161 1.8778 0 3.4142-0.50225 3.4142-1.1161zm163.05-3.4653c-0.58813-1.4703-1.1012-2.0865-1.1401-1.3694-0.09451 1.7418 1.2056 5.0465 1.7653 4.4868 0.24429-0.24428-0.03705-1.6471-0.62518-3.1174zm-165.84-0.99912c-0.37939-0.61386-1.192-1.1161-1.8059-1.1161s-0.80571 0.50224-0.42632 1.1161 1.192 1.1161 1.8059 1.1161 0.8057-0.50225 0.42632-1.1161zm6.6966 0c0.81587-1.3201-0.27626-1.3201-3.3483 0-2.1521 0.9248-2.1445 0.96203 0.21316 1.0377 1.345 0.04314 2.7558-0.4238 3.1352-1.0377zm11.719 0.11941c0-1.243-2.7792-2.3516-5.895-2.3516-3.9704 0-0.18723 2.4076 5.058 3.2188 0.46039 0.07121 0.83708-0.31905 0.83708-0.86723zm-119.98-2.3516c-0.88389-1.4302-1.6742-1.4302-1.6742 0 0 0.61386 0.53189 1.1161 1.182 1.1161s0.87157-0.50225 0.49218-1.1161zm105.98-0.17916c3.0958-1.4105 3.6262-3.5409 1.4591-5.8607-1.5392-1.6478-6.4291-0.14349-6.4291 1.9778 0 0.70329 0.52743 0.63274 1.3393-0.17916 0.73663-0.73663 2.1178-1.3234 3.0693-1.304 1.1466 0.02344 0.69303 0.80897-1.3451 2.3295-1.6913 1.2618-2.7917 2.7526-2.4454 3.313 0.79797 1.2912 0.92967 1.2828 4.3518-0.27644zm-105.76-3.8222c-3.1223-2.6874-5.2546-3.4461-5.2222-1.8582 0.03162 1.5486 1.6388 3.123 4.4473 4.3566 4.0338 1.7717 4.3924 0.61531 0.77484-2.4984zm267.01 1.6761c0.04315 0.86962 0.31297 1.3466 0.5996 1.06s0.07868-2.0026-0.46212-3.8134c-0.94505-3.1642-0.99005-3.1837-1.1576-0.50194-0.16303 2.6086-0.24341 2.645-1.235 0.55805-0.92431-1.9454-0.98789-1.8737-0.49485 0.55805 0.31115 1.5346 0.60788 3.2925 0.65941 3.9064s0.52533 0.11161 1.0529-1.1161c0.56651-1.3184 0.99132-1.5849 1.0376-0.65105zm-209.85-0.91114c2.5813-1.9844 2.6046-2.1173 0.55805-3.1914-3.4899-1.8318-9.3901-2.8034-9.3901-1.5463 0 0.62267 0.48981 2.4204 1.0885 3.995 1.2832 3.3749 3.9827 3.6339 7.7436 0.74267zm4.1471 0.46165c1.286-1.286 1.3746-2.1008 0.39407-3.6273-1.1515-1.7928-1.2113-1.7969-0.66897-0.04611 0.36877 1.1905-0.33124 2.5718-1.8382 3.6273-1.3386 0.9376-1.7839 1.7047-0.98964 1.7047s2.1906-0.74638 3.1028-1.6586zm8.8791-0.44824 2.6784-2.1068-3.13-0.45939c-2.301-0.33771-3.6427 0.22032-5.0657 2.1068-1.8714 2.481-1.8565 2.5662 0.4516 2.5662 1.313 0 3.5926-0.94808 5.0657-2.1068zm5.4864-0.12537c2.6671-2.9471 0.11593-2.9471-3.0474 0-1.8338 1.7084-1.9944 2.2322-0.68437 2.2322 0.9414 0 2.6207-1.0045 3.7318-2.2322zm7.7569-0.1441c0.62698-0.57478-0.11537-0.97201-1.8165-0.97201-1.5822 0-3.5283 0.78496-4.3245 1.7443-1.2738 1.5348-1.0556 1.6516 1.8165 0.972 1.7953-0.42477 3.7413-1.2097 4.3245-1.7443zm34.097 1.2602c0-0.61386-1.0341-1.1161-2.2981-1.1161s-1.9877 0.50224-1.6083 1.1161c0.8956 1.4491 3.9064 1.4491 3.9064 0zm-115.12-8.0838c-1.3409-6.2872 0.71755-14.801 5.1623-21.351 1.5482-2.2814 2.8149-4.3768 2.8149-4.6565s-1.3812-0.54379-3.0693-0.58694c-2.576-0.06582-2.7224-0.21427-0.91117-0.92356 1.4968-0.58615 1.7501-1.0973 0.8266-1.6681-2.1031-1.2998-11.738 9.1944-13.33 14.519-1.5968 5.3406-1.7702 12.583-0.35465 14.819 0.85167 1.345 9.207 5.8906 9.778 5.3196 0.11356-0.11357-0.29884-2.5758-0.91646-5.4716zm86.087 3.3403c-0.03626-2.9603-1.9082-3.9434-8.9118-4.6804-18.635-1.961-32.991-4.2862-33.741-5.4648-0.45315-0.7122-0.8316 0.61816-0.84101 2.9564-0.01009 2.5104 0.43307 3.973 1.0822 3.5718 1.0291-0.636 6.5723 0.01757 28.477 3.3576 12.12 1.8481 13.954 1.8822 13.934 0.2594zm177.15-5.2993c-0.12876-1.8404-0.31858-3.3471-0.42183-3.3483-1.8875-0.0223-3.3571 1.6973-2.9104 3.4056 0.30888 1.1812 1.0068 1.8725 1.5508 1.5362s0.98921-0.07949 0.98921 0.57059 0.2309 1.182 0.51312 1.182 0.40778-1.5058 0.27903-3.3461zm-255.64-3.6296c-0.30962-0.76733-0.56295-0.13952-0.56295 1.3951s0.25333 2.1624 0.56295 1.3951 0.30961-2.0229 0-2.7903zm77.388 0.90036c0-2.932 3.6616-6.2019 6.945-6.2019 1.2923 0 2.0085-0.8754 2.0546-2.5112 0.07008-2.4876 0.0797-2.4891 1.0227-0.15525 0.52358 1.2958 1.759 2.6657 2.7453 3.0442 1.4735 0.56542 1.5886 0.30556 0.64545-1.4567-1.6667-3.1143-3.3152-3.8406-8.3595-3.6834-4.2171 0.13139-4.2882 0.08403-1.1472-0.76497 1.8416-0.49777 2.6668-0.96446 1.8338-1.0371s-1.2452-0.83402-0.91594-1.692-0.75055-2.7414-2.3995-4.1854c-5.7507-5.0359-8.2974-5.7333-18.798-5.1477-13.459 0.75058-18.081 2.5136-21.244 8.1028-2.9907 5.2857-3.4103 12.271-0.79732 13.274 5.408 2.0752 9.692-1.4923 6.297-5.2438-1.462-1.6155-1.5642-2.4336-0.5139-4.1153 1.1486-1.8393 0.93538-2.1561-1.7237-2.5606-1.669-0.25388-0.39775-0.53686 2.825-0.62884 3.2738-0.09343 5.8596 0.3253 5.8596 0.94888 0 0.61386 0.87893 1.0764 1.9532 1.028 1.1668-0.05264 1.3915-0.31475 0.55805-0.65106-2.758-1.1129-1.3179-2.6091 2.5112-2.6091 2.1485 0 3.9064 0.50225 3.9064 1.1161s0.75337 1.1161 1.6742 1.1161 1.6742-0.50225 1.6742-1.1161 1.0341-1.1161 2.2981-1.1161 2.0099 0.46634 1.6576 1.0363 0.49703 1.2794 1.8873 1.5766c1.57 0.33559 1.0476 0.51323-1.3786 0.4688-2.1485-0.03935-6.3138 0.31595-9.2562 0.78954l-5.3498 0.86107 5.3235 2.5657c4.727 2.2782 5.7103 2.404 8.7761 1.1231 2.6629-1.1126 4.1683-1.1501 6.5816-0.16363l3.129 1.279-4.5292 4.0919c-4.6452 4.1967-4.4426 5.0958 1.1846 5.2573 2.5349 0.07277 3.0693-0.38669 3.0693-2.6389zm-0.55805-13.966c1.881-0.76742 1.6177-0.99036-1.6742-1.4171l-3.9064-0.5064 4.5574-0.17861c3.3864-0.13272 4.5574 0.25157 4.5574 1.4955 0 1.0763-1.0296 1.6461-2.8833 1.5957-2.588-0.0704-2.6547-0.17169-0.65106-0.98913zm-12.384 13.779c0.47923-1.2489 0.20671-1.6129-0.89182-1.1914-1.8875 0.7243-5.14-2.5598-5.14-5.1898 0-1.0259-0.70635-1.8653-1.5697-1.8653-1.0573 0-1.3646 0.78427-0.94138 2.4026 0.58433 2.2344 0.3105 2.36-3.9119 1.7936-3.884-0.52096-4.6248-0.28551-5.1254 1.6289-0.51248 1.9597-0.17796 2.1564 2.6913 1.5826 1.8021-0.36042 3.2766-0.19314 3.2766 0.37174s2.3857 1.2152 5.3015 1.4451 5.3733 0.50856 5.4611 0.6192 0.47018-0.60811 0.84974-1.5972zm-70.092-3.4798c-0.37087-0.37087-0.63466 0.28834-0.5862 1.4649 0.05355 1.3002 0.31803 1.5647 0.67431 0.67432 0.32242-0.8057 0.28276-1.7683-0.08811-2.1392zm6.4482-0.9183c0.38114-0.99324 0.19403-1.4412-0.43864-1.0502-0.60683 0.37503-1.1033 1.1545-1.1033 1.7321 0 1.6054 0.79999 1.2517 1.542-0.6819zm66.074 0.61603c0.87058 0 1.5829-0.48982 1.5829-1.0885 0-0.6957-0.9926-0.71109-2.7508-0.04264-1.7359 0.65998-2.9955 0.64979-3.4142-0.02763-0.36489-0.59039-1.1975-1.0734-1.8503-1.0734-0.73291 0-0.63933 0.65978 0.24468 1.725 0.78737 0.94872 2.1456 1.451 3.0182 1.1161s2.2989-0.60884 3.1695-0.60884zm6.309-0.42488c2.0768-1.577 1.5279-2.9234-1.1918-2.9234-0.92079 0-1.3437 0.33048-0.93977 0.73439s0.17499 1.4084-0.5087 2.2322c-1.5845 1.9092 0.10548 1.8816 2.6402-0.04316zm-21.468-2.804c0-0.54818-0.80994-1.3075-1.7999-1.6874-1.5185-0.58271-1.5677-0.97045-0.31456-2.4804 1.2845-1.5478 1.1901-1.7328-0.69856-1.3691-2.6138 0.50338-3.6024 4.202-1.4822 5.5456 1.9757 1.252 4.2952 1.2473 4.2952-0.00879zm-37.291-3.1887c0.90507-3.0916 1.1962-4.3678 1.464-6.4176 0.08022-0.61386 0.5705-0.44619 1.0895 0.37261 0.76276 1.2033 1.0711 1.1566 1.6083-0.24329 0.36555-0.95259 0.22964-2.0008-0.30201-2.3294-1.5185-0.93851-4.5164 0.60111-4.5164 2.3195 0 0.8551-0.46638 1.5548-1.0364 1.5548-1.5583 0-4.5442 3.2987-4.5442 5.0204 0 1.291 1.3565 2.0724 4.6224 2.6629 0.39385 0.07121 1.1204-1.2517 1.6146-2.9398zm85.563-1.1798c1.0742-0.92256 1.9532-2.4088 1.9532-3.3027 0-2.3858-9.1271-12.907-9.9882-11.514-0.39919 0.6459-2.4112 1.5114-4.4712 1.9234-2.698 0.53961-3.5224 0.38826-2.9479-0.54125 0.4386-0.70968 1.9938-1.2903 3.456-1.2903 4.1631 0 4.2586-1.783 0.29862-5.5712-7.241-6.927-14.956-9.1854-23.179-6.785-2.4336 0.71039-2.0342 0.98153 3.1242 2.121 3.253 0.71855 6.8328 1.3064 7.9551 1.3064s2.6658 0.75337 3.43 1.6742 2.2069 1.6853 3.206 1.699c1.4785 0.02019 1.3793 0.38369-0.53291 1.9532-2.8689 2.3547-4.2541 5.8132-2.359 5.8895 0.74805 0.03011 3.3691 2.0387 5.8245 4.4635s5.1482 4.1523 5.9838 3.839c1.001-0.37534 1.2985 0.00583 0.87211 1.1171-0.35601 0.92775-0.19466 1.6868 0.35857 1.6868s1.327 1.0118 1.7195 2.2484c0.73124 2.304 1.7515 2.1273 5.2964-0.917zm-3.6273-2.4475c0-0.61386 1.1301-1.1084 2.5112-1.099 2.0307 0.01383 2.1909 0.22414 0.83707 1.099-2.1639 1.3984-3.3483 1.3984-3.3483 0zm-0.62376-2.6991c2.481-2.0216 3.9721-2.2652 3.9721-0.64917 0 0.61385-0.46117 1.1161-1.0248 1.1161s-1.9448 0.29213-3.0693 0.64917c-1.8708 0.59403-1.8605 0.49925 0.12203-1.1161zm-4.5532 5.4894c-0.35335-0.92078-1.1524-1.6742-1.7758-1.6742-0.65327 0-0.54479 0.70918 0.25607 1.6742 1.7701 2.1328 2.3382 2.1328 1.5197 0zm138.36-18.788c-3.2572-9.9189-6.4336-18.205-7.0586-18.413s-0.85248-0.83815-0.5055-1.3996 0.2198-1.0208-0.28263-1.0208-1.6172 1.1301-2.4774 2.5112c-1.4315 2.2986-1.407 2.3816 0.28957 0.97945 1.0194-0.84249 1.8535-1.0459 1.8535-0.45201 0 1.1691-4.4162 5.5109-5.1396 5.0531-1.1311-0.71585-2.6731-0.15414-2.6731 0.97373 0 0.86555 0.51747 0.82331 1.6742-0.13665 1.0557-0.87617 1.6742-0.95098 1.6742-0.20253 0 0.65278-0.48306 1.4854-1.0735 1.8503-1.2192 0.75351-0.80339 1.9968 4.6747 13.978 2.1051 4.6039 4.43 9.8895 5.1664 11.746 1.2111 3.0524 1.7432 3.3363 5.5696 2.9714l4.2306-0.40345-5.9222-18.034zm-4.8328 17.55c0-0.75998-10.077-24.189-10.692-24.859-0.21526-0.2345-3.2116 2.1512-6.6586 5.3015s-7.022 5.7279-7.9444 5.7279-1.5098 0.37904-1.3052 0.8423 1.3002 3.176 2.4347 6.0283c1.9335 4.8611 2.3769 5.2331 7.078 5.9381 2.7584 0.41364 5.223 0.54433 5.4769 0.29042s-0.79661-3.9307-2.3345-8.1707c-3.2072-8.8421-3.0805-8.2767-1.8542-8.2767 0.51809 0 2.1286 3.7428 3.579 8.3173 2.446 7.7148 2.8831 8.3486 6.0337 8.7502l4.7918 0.61156c0.76732 0.09824 1.3951-0.12739 1.3951-0.5014zm-221.45-7.9616c-0.77402-0.77401-2.8915 0.79863-2.8915 2.1475 0 0.74009 0.6404 0.65541 1.7011-0.22492 0.93562-0.77649 1.4713-1.6416 1.1904-1.9226zm100.91 2.1859c0-0.48136-2.85-3.6204-6.3332-6.9757l-6.3332-6.1004 5.2171 6.1194c2.8694 3.3657 5.2171 6.5047 5.2171 6.9756s0.50225 0.85626 1.1161 0.85626 1.1161-0.39384 1.1161-0.87521zm37.42-0.19216c-0.36282-0.58705-1.397-0.78443-2.2981-0.43864-2.3071 0.88533-2.0352 1.506 0.65968 1.506 1.2639 0 2.0012-0.48032 1.6384-1.0674zm6.3675-1.1648c2.6594 0 10.309-3.1971 9.5252-3.981-1.0644-1.0645-13.547 3.5462-14.047 5.1882-0.38736 1.2744-0.19284 1.311 0.99766 0.18792 0.81336-0.76733 2.399-1.3951 3.5237-1.3951zm45.683-5.6918c6.5453-3.6739 12.548-7.5375 13.339-8.5858 1.2192-1.615 1.2-1.693-0.12572-0.51087-2.0567 1.834-2.9783 1.7629-2.9783-0.22992 0-0.89379 0.41854-1.3664 0.9301-1.0502s0.93008-1.2423 0.93008-3.4633c0-2.2849-0.4634-3.7517-1.0674-3.3784-0.58705 0.36281-0.7908 1.5225-0.45276 2.5771 0.46509 1.451 0.35433 1.5538-0.45541 0.42238-0.87346-1.2205-1.9177-1.0626-5.6858 0.85977-4.8471 2.4728-6.1146 4.0778-2.4671 3.124 1.4802-0.38708 1.9696-0.09529 1.5732 0.93783-0.37638 0.98081-1.6403 1.2868-3.6528 0.88427-2.2061-0.44123-4.8907 0.40795-9.4828 2.9996-7.0733 3.9919-8.4694 5.9777-5.964 8.4831 1.4814 1.4814 2.948 0.95474 13.042-4.6832 6.2549-3.4938 11.631-6.0941 11.946-5.7785s-0.83869 1.3025-2.5651 2.1932c-7.1273 3.6772-16.602 9.0221-17.592 9.9246-2.0525 1.87-5.0249 0.933-6.6721-2.1033-1.3397-2.4695-1.6738-2.6503-1.7098-0.92496-0.06151 2.9515 3.3298 6.4534 5.4654 5.6437 0.95953-0.36381 7.0999-3.6674 13.645-7.3412zm5.7013-9.4919c0.37088-0.37087 1.3335-0.41051 2.1392-0.0881 0.89035 0.35628 0.62589 0.62075-0.67432 0.6743-1.1766 0.04847-1.8358-0.21532-1.4649-0.5862zm-26 13.437c-0.59866-1.5746-1.0885-6.0641-1.0885-9.9766v-7.1136l-5.3015-0.68738c-2.9158-0.37805-6.5571-0.89604-8.0918-1.1511-1.7902-0.2975-1.1388 0.28731 1.8175 1.6317 2.5342 1.1525 5.3507 3.1561 6.2587 4.4525 2.2796 3.2546 1.2533 7.8587-1.7887 8.0241-1.8863 0.10257-1.9752 0.23555-0.42794 0.6399 1.0742 0.28072 1.9532 0.94078 1.9532 1.4668s-1.468 0.53533-3.2677 0.0192c-2.4716-0.70886-3.4202-0.53981-3.8936 0.69393-0.34424 0.8971-0.14585 1.3344 0.44089 0.97178 1.9967-1.234 12.301 0.74403 12.301 2.3613 0 0.8417 0.48982 1.5304 1.0885 1.5304 0.70723 0 0.70723-1.0027 0-2.8629zm-122.74-3.9526c2.7624-0.75236 7.2826-1.33 10.045-1.2837 4.6 0.07717 4.7643-0.00893 1.9532-1.0237-1.6881-0.6094-3.0693-1.5684-3.0693-2.1311s-1.6323-0.94786-3.6273-0.85588l-3.6273 0.16723 3.3137 0.48854c3.0986 0.45683 2.9203 0.62708-2.7474 2.623-3.3336 1.174-6.9297 2.1345-7.9913 2.1345s-2.2738 0.55606-2.6938 1.2357c-0.49445 0.80003-0.0258 1.0202 1.3293 0.62449 1.1511-0.33615 4.3531-1.2268 7.1154-1.9791zm-33.399-2.7282c3.2392-2.1798 8.1165-4.5589 10.839-5.287l4.9492-1.3237-6.541-1.3649c-5.9131-1.2339-7.1303-1.1407-12.68 0.97102-6.6423 2.5276-10.045 5.5286-10.045 8.8593 0 3.6387 6.6808 2.7194 13.478-1.8547zm15.541 1.731c1.5346-1.2004 3.5436-2.2014 4.4644-2.2245 1.4881-0.03725 1.4881-0.16212 0-1.1238-2.2961-1.4839-3.648-1.3879-2.673 0.18967 0.54263 0.87799 0.19856 1.0723-1.0502 0.59308-1.1034-0.42341-1.8642-0.16062-1.8743 0.64741-0.01179 0.93776-0.31962 0.88248-0.99132-0.17802-0.54394-0.85877-1.5749-1.1669-2.3343-0.69757-1.0462 0.64659-1.0106 1.062 0.15424 1.8001 1.1399 0.72226 0.96238 0.96795-0.71792 0.99368-1.8516 0.02834-1.9467 0.21867-0.55805 1.1161 2.2224 1.4363 2.3502 1.4107 5.5805-1.1161zm152.09-6.8906c1.7454-1.3108 1.3942-1.5172-3.0693-1.8039-4.0671-0.26124-5.0401 0.03117-5.0401 1.5145 0 1.3056 0.56603 1.6109 1.9532 1.0537 4.6693-1.8755 5.0748-1.742 1.6742 0.55113-1.995 1.3453-3.6273 2.6607-3.6273 2.9231 0 0.5998 5.4829-2.266 8.1094-4.2386zm-106.88 2.4675c2.4412-1.0038 2.4143-1.0212-5.1407-3.3384-2.8108-0.86208-4.9366-0.88765-7.0483-0.08476-1.663 0.63227-4.3722 1.1978-6.0203 1.2567-2.1168 0.07568-1.3582 0.52828 2.5839 1.5416 6.5284 1.6781 12.485 1.9163 15.625 0.62485zm-46.318-1.1575c0-0.61386-0.50225-1.1161-1.1161-1.1161s-1.1161 0.50224-1.1161 1.1161 0.50224 1.1161 1.1161 1.1161 1.1161-0.50225 1.1161-1.1161zm16.328-0.88285c-0.3001-0.48557 1.177-0.68174 3.2824-0.43594s3.8273 0.01527 3.8264-0.51228-2.0099-1.0969-4.4644-1.2652-4.4628 0.17156-4.4628 0.75524-0.87893 1.2909-1.9532 1.5716c-1.1755 0.30718-0.70481 0.56198 1.182 0.63989 1.7243 0.07121 2.8896-0.26781 2.5895-0.75338zm196.18-0.90287c1.3369-0.51301 1.4796-1.1656 0.61007-2.7903-0.62422-1.1664-0.80464-2.1206-0.40095-2.1206s0.26071-0.62781-0.31775-1.3951-1.7248-3.5297-2.5475-6.1386c-0.96259-3.0526-2.1284-4.712-3.2703-4.6553-1.1504 0.05712-1.2845 0.2859-0.38133 0.65042 0.81121 0.32741 1.1369 1.5837 0.77953 3.0074-0.33752 1.3448-0.07398 3.6889 0.58565 5.2091 1.1529 2.657 1.1766 2.6343 0.61204-0.58429l-0.58728-3.3483 1.5233 2.7903c0.8378 1.5346 1.8516 4.297 2.2529 6.1386 0.68775 3.1562 0.63259 3.224-0.96167 1.1818-1.7872-2.2894-2.1344-1.9609-1.0138 0.95911 0.76971 2.0058 0.75718 2.0014 3.1172 1.0958zm-56.942-6.027c1.6249-2.4554 2.757-4.4644 2.5157-4.4644s-3.3003 1.7232-6.7978 3.8293l-6.3592 3.8293 3.7127 0.45652c2.042 0.25108 3.7715 0.53689 3.8434 0.63513s1.4602-1.8304 3.0851-4.2858zm3.4808 2.2322c0-0.81848 0.69773-1.7207 1.5505-2.005 1.0617-0.35389 1.2591-0.04532 0.62615 0.97876-0.50837 0.82257 1.054 0.32357 3.472-1.1089s7.056-4.1102 10.307-5.9504c5.7384-3.2486 7.5214-5.669 2.277-3.091-2.5082 1.2329-2.5012 1.195 0.18343-1.0009 3.0562-2.4999 5.0448-3.0579 3.8169-1.071-0.85053 1.3762-0.70304 1.3279 5.309-1.7367 2.6585-1.3552 4.0486-2.8187 3.9479-4.1563-0.1659-2.2024-1.373-2.7248-2.4118-1.0438-0.34698 0.56142-0.00128 1.2306 0.76824 1.4872 2.6231 0.87436-4.1085 3.4684-8.3641 3.2232-3.6287-0.20911-4.3662 0.175-5.5164 2.8733-2.0534 4.8168-5.2352 6.9014-9.4819 6.2122-4.2973-0.69736-6.4041 0.72294-8.042 5.4214-0.8981 2.5763-0.85292 3.2599 0.19243 2.9115 0.75137-0.25046 1.3661-1.125 1.3661-1.9435zm4.3987-3.9419c1.1916-0.90127 2.6688-1.6387 3.2826-1.6387s0.14118 0.7374-1.0504 1.6387-2.6688 1.6386-3.2826 1.6386-0.14118-0.7374 1.0504-1.6386zm13.885-0.10688c0.10673 1.6892 0.44028 1.834 1.7399 0.75548 0.8843-0.73391 1.2994-2.1382 0.92234-3.1207-0.50596-1.3185-0.2068-1.6026 1.1424-1.0849 1.25 0.47969 2.6221-0.41407 4.3406-2.8274l2.5128-3.5288-6.1 3.5124c-5.33 3.0691-6.1244 3.9787-6.2929 7.2066l-0.19291 3.6942 0.89794-3.3483c0.53784-2.0055 0.9509-2.5102 1.03-1.2585zm-31.642 1.8725c-0.36035-0.58305 0.48895-1.6698 1.8873-2.4149 2.1673-1.1549 2.3778-1.1142 1.4264 0.27574-0.61386 0.89681-0.11161 0.54125 1.1161-0.79012 2.5219-2.7348 7.989-5.9144 6.7654-3.9347-0.41723 0.6751-0.22672 1.2275 0.42336 1.2275s1.182-0.7226 1.182-1.6058c0-1.0694-1.771-1.8491-5.3015-2.3342-2.9158-0.40063-7.2356-1.2178-9.5996-1.8159s-4.5492-0.83637-4.8561-0.52945c-0.51467 0.51466 3.2927 8.3508 5.6297 11.587 1.171 1.6214 2.2978 1.9059 1.3269 0.33502zm-5.0571-1.1965c0-0.6273-1.9818-5.2731-4.404-10.324-10.08-21.018-13.461-28.927-14.114-33.01-0.66688-4.1705-0.52911-4.4048 4.1707-7.0957l12.918-7.4155c4.4316-2.548 9.2333-4.6326 10.67-4.6326 2.5736 0 10.688 2.9681 21.266 7.7783 6.2867 2.859 6.4552 4.256 0.198 1.6415-2.3306-0.97377-6.4064-1.9472-9.0575-2.1633-4.4671-0.36401-4.7248-0.24014-3.5185 1.6914 1.4014 2.2439 13.094 4.1806 17.804 2.949 1.5724-0.4112 5.8206 0.93994 11.873 3.7763 10.25 4.8035 10.697 4.9558 9.6738 3.3005-0.37939-0.61385-0.18754-1.1161 0.42632-1.1161s1.4265 0.50225 1.8059 1.1161 0.03235 1.1238-0.77121 1.1332c-1.0616 0.01242-1.0034 0.31284 0.21316 1.099 2.7761 1.7941 3.2411 1.2856 2.1866-2.3911-0.55322-1.929-0.71673-3.975-0.36335-4.5468 0.78001-1.2621-4.3189 1.5101-5.3258 2.8955-1.0362 1.4257-3.1966-0.23276-2.5382-1.9485 0.30709-0.80025-0.162-3.6721-1.0424-6.3819s-1.9165-6.308-2.3025-7.9961c-0.53387-2.335-1.3642-3.0693-3.4708-3.0693-2.7556 0-3.7119 1.5177-1.7287 2.7434 0.57217 0.35361 1.6464 3.3511 2.3871 6.6611 0.93466 4.1765 2.0679 6.3676 3.7031 7.1601 1.296 0.6281 1.7749 1.176 1.0644 1.2175s-6.2353-2.237-12.277-5.0635c-18.074-8.4552-27.301-11.753-35.271-12.604-7.5158-0.80306-7.6022-0.78063-16.747 4.3487-12.871 7.2198-18.679 11.02-18.679 12.222 0 1.315-8.1308 0.07717-9.0881-1.3836-0.40199-0.61344-2.1024-0.74693-3.8685-0.30367-3.8228 0.95945-26.384-1.5291-27.364-3.0184-0.96987-1.473-9.5706 0.12343-11.6 2.1532-2.7005 2.7006-1.9248 4.5244 3.0914 7.2685 2.8316 1.549 5.4182 4.0471 6.4176 6.198 2.2846 4.917 4.9299 4.69 6.2223-0.5339 1.1623-4.698 1.1824-4.7021 14.984-3.0645 10.252 1.2164 11.467 2.0313 10.961 7.3469-0.37592 3.9419-0.16468 4.3674 2.1687 4.3674 3.1177 0 9.9255 3.3804 13.378 6.6429 2.9391 2.7772 3.1733 5.3084 0.80416 8.6908-1.6579 2.367-1.5534 2.4819 3.6274 3.991 4.5074 1.3129 5.422 2.0515 5.8995 4.7641 0.505 2.869 1.217 3.3478 6.6966 4.5029 8.1079 1.7092 8.9218 1.7459 8.9218 0.40254zm-22.322-41.271c0-0.61385 0.50225-1.1161 1.1161-1.1161s1.1161 0.50225 1.1161 1.1161-0.50225 1.1161-1.1161 1.1161-1.1161-0.50225-1.1161-1.1161zm-22.88-2.3074c-7.9802-1.1201-17.774-2.3822-21.764-2.8046s-8.008-1.229-8.9288-1.7924c-1.8737-1.1464 5.2069-0.56006 22.88 1.8946 6.1386 0.8526 14.049 1.8842 17.579 2.2924s6.4176 1.1866 6.4176 1.7298-0.37668 0.92656-0.83708 0.85208-7.3663-1.0519-15.346-2.1719zm-37.39-5.5054c0-0.61386 1.0045-1.1161 2.2322-1.1161s2.2322 0.50225 2.2322 1.1161-1.0045 1.1161-2.2322 1.1161-2.2322-0.50224-2.2322-1.1161zm58.037 0c0-0.61386 0.50225-1.1161 1.1161-1.1161s1.1161 0.50225 1.1161 1.1161-0.50225 1.1161-1.1161 1.1161-1.1161-0.50224-1.1161-1.1161zm8.9288-4.9159c0-0.7938 12.188-7.3613 13.655-7.3584 0.77662 0.00158-1.501 1.7594-5.0615 3.9064-5.9158 3.5672-8.5939 4.643-8.5939 3.452zm-6.6966 50.61c0-0.65008-0.62781-0.8048-1.3951-0.3438-0.94798 0.56952-0.90417 0.23291 0.13666-1.0502 1.896-2.3374 3.4907-2.4353 3.4907-0.21425 0 0.92078 0.50225 1.6742 1.1161 1.6742 1.3503 0 1.4932-2.9835 0.18174-3.794-0.51389-0.3176-2.9693-1.0347-5.4564-1.5935l-4.5221-1.016 2.2184 3.7598c2.1698 3.6776 4.2301 4.9332 4.2301 2.5779zm36.266 0.07865c0.39102-0.63267-0.05699-0.81977-1.0502-0.43864-1.9336 0.74198-2.2873 1.542-0.6819 1.542 0.57763 0 1.3571-0.4965 1.7321-1.1033zm-42.57-2.834c-1.0854-2.8285-4.3442-3.8796-11.758-3.7928l-7.049 0.08259 8.3708 2.5906c10.273 3.1793 11.268 3.2861 10.437 1.1195zm60.397-2.298c2.7706-4.2286 1.504-4.3817-4.5909-0.55505l-5.4149 3.3997 4.057 0.02121c3.1454 0.01644 4.4821-0.62753 5.9487-2.8659zm-8.824 0.13232c1.1916-0.90125 1.6938-1.6546 1.1161-1.6742-1.3151-0.04444 2.8977-3.2998 4.333-3.3483 0.57772-0.01952 0.07548 0.74558-1.1161 1.7002-2.0969 1.68-2.089 1.6983 0.24782 0.57065 1.4276-0.68894 2.2608-1.9684 2.0386-3.1309-0.20666-1.0812-0.43015-2.468-0.49664-3.0819s-0.73273-0.36273-1.4805 0.55805c-1.6002 1.9704-10.257 2.8714-9.0658 0.94358 0.45847-0.74182 0.14435-1.0087-0.78834-0.66983-0.85277 0.30983-1.4249 1.1284-1.2715 1.819s-0.28472 1.2556-0.97373 1.2556c-0.86555 0-0.82331 0.51747 0.13665 1.6742 2.713 3.269-0.22315 1.5912-7.8127-4.4644-4.2315-3.3762-8.2226-6.1386-8.8693-6.1386s-1.2339 1.1301-1.3052 2.5112c-0.09742 1.8898-0.25579 2.0279-0.63989 0.55805-0.28073-1.0742-0.89213-1.9532-1.3587-1.9532-1.8747 0-2.0785 1.4731-0.66808 4.8276 1.0634 2.529 2.4498 3.7233 4.9052 4.2255 1.8826 0.38503 3.153 0.26347 2.8232-0.27013s-0.06771-0.97016 0.58237-0.97016 1.182 0.44635 1.182 0.99189c0 1.0256 5.5623 2.4202 12.138 3.0434 3.6823 0.34894 3.7227 0.30726 1.7802-1.8391-2.4315-2.6868-1.4115-2.8282 2.3977-0.33231l2.8446 1.8638-2.6048 1.4449c-1.4326 0.79471-2.073 1.4627-1.423 1.4845s2.1567-0.69785 3.3483-1.5991zm-23.617-9.0163c-0.39236-1.5632-0.40192-3.1537-0.02128-3.5343s0.6921 0.10911 0.6921 1.0884 0.78924 2.5697 1.7539 3.5343c1.5762 1.5762 1.5783 1.7539 0.02126 1.7539-0.95294 0-2.0536-1.279-2.446-2.8422zm-90.565 4.2967 2.0796-3.5607-4.0244-0.75498c-2.2134-0.41523-4.2845-0.49488-4.6024-0.17699s-0.23386 2.4123 0.18674 4.6543c0.94092 5.0155 3.3729 4.9537 6.3604-0.16158zm21.561 2.1558c0.65863-0.451 1.5344-1.5734 1.9461-2.4942s1.3683-2.5393 2.1257-3.5966c1.0216-1.4261 1.0524-2.2472 0.11925-3.1804s-2.0073 0.02077-4.1603 3.6947c-1.5963 2.7239-2.9024 5.2851-2.9024 5.6916 0 0.96842 1.3694 0.91352 2.8717-0.11515zm7.0372-1.2704c1.8008-1.1406 0.72613-3.456-1.604-3.456-0.88456 0-1.6083 0.21005-1.6083 0.46677s-0.30485 1.2612-0.67746 2.2322c-0.74671 1.9459 1.3642 2.3567 3.8898 0.75703zm34.456-0.76886c2.4566-1.5872 3.4856-4.9194 1.5191-4.9194-0.54565 0-0.92234-0.84227-0.83708-1.8717 0.20964-2.5312-7.0112-7.3343-10.13-6.7381-1.3598 0.25993-2.6154 0.05026-2.7903-0.46594s-2.5781-1.1339-5.3404-1.3726-3.8924-0.21224-2.5112 0.0588 2.5112 0.89205 2.5112 1.38-1.2556 0.64717-2.7903 0.35381c-1.6288-0.31136-2.7903-0.01465-2.7903 0.71282 0 0.68542-0.78301 1.2462-1.74 1.2462s-1.4296-0.50225-1.0502-1.1161c1.1275-1.8244-1.2574-1.2688-3.5937 0.83708-3.4683 3.1263-4.7814 7.2817-3.0496 9.6501 0.80975 1.1074 1.9732 1.7038 2.5855 1.3254s1.4499-0.14335 1.8613 0.52237 1.4767 0.93079 2.3673 0.58905 1.327-0.14858 0.9699 0.42929c-1.1272 1.8238 21.918 1.2467 24.809-0.62128zm-5.6835-6.7848c-4.2312-2.217-3.1367-3.0322 1.4704-1.0951 2.0121 0.84602 3.2162 1.8115 2.6758 2.1454s-2.4062-0.13868-4.1462-1.0504zm0.00432-3.2891c-1.7424-0.94425-2.9191-1.9657-2.615-2.2698 0.59543-0.59542 7.4571 2.668 7.4571 3.5466 0 0.91281-1.5616 0.50105-4.8421-1.2768zm46.722 7.4151c-1.9644-2.1706-1.9066-2.1986 3.8286-1.8555 4.0464 0.24205 5.2544 0.03012 3.9594-0.69464-1.025-0.57363-3.9558-0.83173-6.5128-0.57354-3.6728 0.37084-5.4173-0.10788-8.3069-2.2796-2.0117-1.512-3.396-3.0108-3.0761-3.3306s1.4636 0.18879 2.5416 1.1304c2.3396 2.0435 10.331 3.6975 10.331 2.1383 0-0.59052-0.62781-1.2979-1.3951-1.5719s-1.069-0.85136-0.67028-1.2829 1.6543 0.20974 2.7903 1.4251c1.9564 2.0932 13.858 5.1085 17.316 4.3872 0.81981-0.17096 1.3694 0.30376 1.2213 1.0549-0.35992 1.8258 6.683 3.7043 7.7859 2.0766 0.48947-0.72238 0.83688-0.76029 0.86189-0.09407 0.04696 1.2504 4.393-3.9736 4.4319-5.3272 0.02182-0.75828-5.1865 2.0733-6.6718 3.6273-1.0843 1.1344-4.6845 1.2849-3.9936 0.16696 0.38215-0.61831-0.41552-2.1586-1.7726-3.423-2.8417-2.6475-5.2335-3.1198-3.1626-0.62458 1.7167 2.0685 0.25056 2.2042-2.1443 0.19843-0.96913-0.81165-5.1165-3.825-9.2163-6.6963-6.0513-4.238-7.7368-4.9581-8.9554-3.8258-0.82563 0.76716-2.1693 1.5378-2.9859 1.7126s-3.2207 1.4974-5.3424 2.9391l-3.8576 2.6213 6.4851 5.066c6.8223 5.3294 9.8745 6.7524 6.5108 3.0355zm-0.40749-12.306c0-1.5346 0.25333-2.1624 0.56295-1.3951s0.30962 2.0229 0 2.7903-0.56295 0.13951-0.56295-1.3951zm62.326 8.2891c0-5.5197-2.2499-14.986-3.5618-14.986-0.72275 0-0.81296 1.1312-0.24477 3.0693 0.49492 1.6881 0.92606 5.3294 0.95808 8.0918 0.04945 4.2663-0.27159 5.0225-2.1322 5.0225-1.5138 0-2.5118-1.1205-3.2307-3.6273-0.57217-1.995-1.4699-3.6274-1.995-3.6274-1.1726 0-1.2174-0.43436 0.57388 5.5577 2.3997 8.0273 9.6325 8.4021 9.6325 0.49915zm-10.485 1.1978c-0.67247-2.1485-1.5678-3.9064-1.9897-3.9064s-1.8092 1.4637-3.0831 3.2527c-2.5158 3.5331-1.9261 4.3105 3.3927 4.4719 2.813 0.08539 2.865-0.03268 1.6801-3.8182zm-23.565-0.54528c0.39102-0.63267-0.05699-0.81978-1.0502-0.43864-1.9336 0.74198-2.2873 1.542-0.6819 1.542 0.57763 0 1.3571-0.4965 1.7321-1.1033zm-123.95-4.4008 4.2848-4.388-4.3373-0.44687-4.3373-0.44686 4.8093-0.18762c2.882-0.11243 4.5329-0.63489 4.1195-1.3037-0.37939-0.61385 0.21878-1.1514 1.3293-1.1946 1.8022-0.07002 1.7794-0.18144-0.21316-1.0377-4.389-1.886-13.586-1.0016-12.239 1.1771 0.32061 0.51873-0.47653 1.5102-1.7714 2.2031s-3.0282 2.8527-3.8519 4.7994c-1.3986 3.3052-1.3371 3.5875 0.9279 4.2653 4.9992 1.496 7.0798 0.86147 11.28-3.4396zm-3.2737-7.8892c-0.39122-0.63301 0.54647-1.1161 2.1663-1.1161 1.5709 0 2.8561 0.50225 2.8561 1.1161 0 1.4516-4.1253 1.4516-5.0225 0zm23.061 5.4335c-1.634-0.38775-4.8124-0.76444-7.0633-0.83707s-4.3037-0.75986-4.5619-1.5272c-0.36607-1.0877-0.87853-1.0575-2.3252 0.13665-3.1105 2.5676-2.115 3.4907 3.7648 3.4907 4.3737 0 6.1686 0.56206 8.0918 2.5339l2.4714 2.5339 1.2967-2.813c1.1886-2.5784 1.049-2.8717-1.6742-3.518zm120.16 4.3324 2.7346-2.5112-1.3068 2.5112c-1.8607 3.5754-0.96731 3.1059 2.1234-1.1161 1.5047-2.0554 1.8375-2.9635 0.76795-2.0956-1.0381 0.84249-1.8875 1.0459-1.8875 0.45201 0-1.478 3.9351-4.9314 4.7223-4.1442 0.34911 0.34911 1.0138 0.02148 1.477-0.72807 0.47438-0.76755 0.37805-1.0759-0.22056-0.70594-0.58454 0.36127-1.7922 0.19544-2.6837-0.36852s-1.0516-1.0331-0.3559-1.0425 1.5276-1.0216 1.8487-2.2493c0.62594-2.3936-0.91409-2.8832-3.6422-1.1579-1.0843 0.68572-1.94 0.58482-2.5112-0.29612-0.56067-0.86458-1.162-0.94227-1.7036-0.22011-0.46039 0.61386-2.2987 1.2217-4.0852 1.3507-3.4969 0.25258-2.7293-1.3771 1.0159-2.1568 1.2277-0.25557-1.4388-0.86053-5.9257-1.3444s-8.3942-0.64333-8.6831-0.35447 2.6822 2.6149 6.6023 5.1689c4.8674 3.1712 7.7673 4.3982 9.1452 3.8694 1.4972-0.57455 1.782-0.39296 1.1041 0.70395-0.61242 0.9909-0.48281 1.212 0.39316 0.6706 0.71871-0.44418 1.0518-1.2202 0.74009-1.7245s0.66696-1.7252 2.1747-2.7132c3.8573-2.5274 5.0549-2.1932 1.7038 0.47547-2.3052 1.8358-2.4022 2.1063-0.55805 1.5559 2.1186-0.63227 2.1106-0.56203-0.1568 1.3804-1.314 1.1256-3.9508 2.9022-5.8596 3.9479-3.7123 2.0337-4.6978 5.3534-1.5893 5.3534 1.0347 0 3.1118-1.13 4.6159-2.5112zm-154.32-1.1161c0.42091-1.3812 1.492-3.3403 2.3801-4.3536 2.1714-2.4773-0.16549-3.9368-2.5252-1.5771-0.95993 0.95993-2.6602 1.7453-3.7784 1.7453s-2.3379 0.79444-2.7105 1.7654c-0.98875 2.5767-0.82864 4.0403 0.36152 3.3047 0.57145-0.35318 1.3545-0.13169 1.74 0.49218 1.2272 1.9856 3.7404 1.2222 4.5325-1.3769zm139.11 1.2838c1.6677-0.89254 2.0865-0.89254 1.5349 0-1.0955 1.7725-0.14943 1.529 4.3318-1.115 4.9695-2.9321 5.2122-3.9375 0.34282-1.4201-3.1151 1.6104-3.4228 1.6287-2.1787 0.1289 1.2847-1.5488 0.50558-1.8348-6.884-2.5272-4.5829-0.42945-8.8533-0.45901-9.4897-0.06568s-3.7124-1.1207-6.8356-3.3645-5.9151-3.843-6.2042-3.5539 2.5075 2.7372 6.2147 5.4402c7.5427 5.4995 10.362 6.9124 7.9413 3.9799-2.2817-2.7641-0.05728-2.2322 3.764 0.90001 3.8507 3.1564 4.35 3.2633 7.4628 1.5974zm29.339-3.516c-0.90393-5.4715-1.0787-5.7831-2.6866-4.7893-1.4798 0.91457-1.5111 2.9633-0.10188 6.6699 1.8099 4.7605 3.6776 3.501 2.7885-1.8805zm-140.34 2.8539c-1.0859-0.28297-2.5927-0.26437-3.3483 0.04136s0.13285 0.53726 1.9744 0.51451 2.4598-0.27289 1.3739-0.55587zm76.539-8.3865c6.2464-3.6231 7.3639-4.6895 6.281-5.9944-1.3573-1.6354-4.9498-2.2762-3.982-0.7103 0.29809 0.48233-0.30008 0.88745-1.3293 0.90029s-3.2945 0.39171-5.034 0.84194c-2.4014 0.62156-2.986 0.472-2.4285-0.62124 0.40388-0.79192-0.00556-0.53432-0.90986 0.57247-1.0475 1.282-1.8004 1.5439-2.0744 0.72161-0.31017-0.93052-1.5876-0.80718-4.5772 0.44194-2.2808 0.95297-4.1469 1.317-4.1469 0.80893s1.5452-1.5638 3.4338-2.3461c2.5486-1.0556 3.2905-1.9702 2.8781-3.5475-0.44689-1.7089-0.2524-1.8734 0.99296-0.83987 1.2168 1.0098 3.7098 0.04862 11.631-4.4845 5.5454-3.1734 10.083-6.1738 10.083-6.6676s-2.2742-2.7613-5.0538-5.039l-5.0538-4.1412-10.572 5.8565c-5.8144 3.2211-10.572 6.2798-10.572 6.797s-0.75337 0.94053-1.6742 0.94053c-3.1402 0-2.3823 2.8929 5.1932 19.822l2.1277 4.755 3.5942-1.8299c1.9768-1.0064 7.0134-3.8131 11.192-6.237zm-15.601-9.1634c0.33384-0.86998-0.11467-1.8587-0.99669-2.1972s-1.6037-1.4142-1.6037-2.3904-0.4965-1.4682-1.1033-1.0932c-0.64935 0.40133-0.80916-0.08467-0.38839-1.1812 0.625-1.6287 0.8764-1.5614 1.9984 0.53508 0.7059 1.319 1.576 2.1057 1.9335 1.7482s1.1842 0.88234 1.8371 2.7552c0.99188 2.8453 0.90169 3.4053-0.54842 3.4053-1.0391 0-1.4919-0.63474-1.1285-1.5818zm-50.314 12.004c-0.76732-0.30962-2.0229-0.30962-2.7903 0s-0.13951 0.56295 1.3951 0.56295 2.1624-0.25334 1.3951-0.56295zm101.22-2.1058c-7.8779-5.8301-14.557-9.6931-15.327-8.865-0.43705 0.46993-0.16683 1.0786 0.60049 1.3527s1.3951 1.2098 1.3951 2.0794 0.55598 1.5812 1.2355 1.5812 0.97075 0.68996 0.64715 1.5332c-0.91637 2.388 4.54 4.5643 12.565 5.0114 2.5601 0.14263 2.4914-0.02318-1.1161-2.6929zm4.4644 0c-2.1143-1.5647-6.3049-4.4276-9.3125-6.362l-5.4683-3.5171 2.9571-0.9857c1.6264-0.54213 2.9571-1.6814 2.9571-2.5318 0-1.8621-3.2838-0.95635-5.2272 1.4418-0.75287 0.92905-1.9527 1.2715-2.7903 0.79641-4.0698-2.3087 1.9284 2.5004 9.8359 7.8861 8.9274 6.0803 14.066 8.4661 7.0482 3.2723zm-111.81 0.96197c-1.0671-0.27935-3.0761-0.28948-4.4644-0.02252s-0.51526 0.49553 1.9402 0.50791 3.5913-0.20604 2.5242-0.48539zm92.815-2.7448c-0.66524-1.243-0.94792-2.5217-0.62815-2.8415s-0.01623-1.2262-0.74665-2.0143c-1.0795-1.1648-1.9025-1.1371-4.3973 0.14758-1.6881 0.8693-3.0693 1.8007-3.0693 2.0697 0 1.0647 8.2445 6.015 9.1183 5.475 0.51297-0.31704 0.38838-1.5935-0.27688-2.8365zm-86.969 1.2794c-1.5346-0.49147-4.7992-0.86822-7.2547-0.83722l-4.4644 0.05639 5.0225 0.78083c7.261 1.1289 10.222 1.1289 6.6966 0zm16.533-3.6247c-0.33961-3.5197-0.55986-3.6637-7.6044-4.9704-3.9901-0.74011-9.0811-1.3691-11.313-1.3977-3.7356-0.04795-4.1027 0.23664-4.6112 3.5752-0.30384 1.995-0.45232 3.7451-0.32996 3.8891 0.3717 0.43734 15.41 2.2366 19.953 2.3873 4.153 0.13776 4.2476 0.05335 3.9064-3.4836zm-29.717 1.7462c-0.80568-0.32241-1.7683-0.28277-2.1392 0.0881s0.28833 0.63466 1.4649 0.5862c1.3002-0.05355 1.5647-0.31802 0.67431-0.6743zm-2.4422-2.8649c3.7e-4 -0.4604-1.0038-1.8416-2.2315-3.0693-2.9215-2.9215-14.988-3.2721-16.064-0.46677-1.5535 4.0484-0.83445 4.4067 8.8088 4.3898 5.2174-0.00915 9.4865-0.39334 9.4869-0.85373zm-11.16-3.0693c-2.4206-0.77523-2.1989-0.90608 1.6742-0.98777 2.4554-0.05178 5.2178 0.39271 6.1386 0.98777 1.2752 0.82411 0.8763 1.0595-1.6742 0.98776-1.8416-0.05178-4.6039-0.49628-6.1386-0.98776zm89.288 0.27903c0-0.4604 1.3812-0.87085 3.0693-0.91211s4.5254-0.4912 6.305-0.99985c2.1718-0.62074 2.9996-0.54278 2.5176 0.23709-0.39496 0.63906 0.07345 1.4657 1.0409 1.837 2.6408 1.0134 3.4687 0.78172 1.5765-0.44111-1.2165-0.78617-1.2748-1.0866-0.21315-1.099 0.80355-0.0094 1.1506-0.51933 0.7712-1.1332s-0.1579-1.1161 0.49218-1.1161 1.182 0.78246 1.182 1.7388c0 1.3511 1.4518 0.91571 6.5122-1.9532 13.261-7.5181 13.201-7.2674 1.8031-7.498l-10.073-0.20382-9.1605 5.19c-5.0383 2.8545-8.8823 5.6401-8.5422 6.1903 0.74918 1.2122 2.7187 1.3305 2.7187 0.16325zm50.394-4.8236c-12.643-6.007-14.957-6.0156-15.133-0.05596-0.05666 1.9165 0.27365 3.4845 0.73404 3.4845s0.83708-0.56382 0.83708-1.2528c0-0.86659 0.51513-0.82524 1.6711 0.13408 1.4018 1.1634 12.901 2.8488 21.209 3.1084 1.2277 0.03836-2.9654-2.3998-9.3181-5.4182zm12.108 1.1304c0-0.57763-0.41854-1.0502-0.93009-1.0502s-0.93009 0.73128-0.93009 1.6251 0.41854 1.3664 0.93009 1.0502 0.93009-1.0474 0.93009-1.6251zm20.916-2.5143c2.0843-2.0843 0.954-5.8888-2.297-7.7317-1.3396-0.75938-5.7003-2.4746-9.6903-3.8117s-6.2033-2.4731-4.9182-2.5245c2.7016-0.1081 14.976 3.9378 16.466 5.4273 0.59661 0.59662 1.9086 0.16415 3.2263-1.0635 1.9635-1.8293 2.4859-3.8464 2.9612-11.433 0.0673-1.0742 0.89673-1.9532 1.8432-1.9532s2.8299-1.0665 4.1854-2.37l2.4646-2.37-2.4379 1.2538c-3.8297 1.9697-4.6472 1.3762-0.91045-0.66094 1.8416-1.004 4.3528-1.9044 5.5805-2.001s2.0427-0.6362 1.8111-1.1992c-1.3512-3.2842-1.3933-3.9702-0.32096-5.2232 1.0152-1.1862 9.4252-5.6705 24.738-13.191 2.1485-1.0551 5.9154-3.0504 8.3708-4.434s6.3897-3.5583 8.7428-4.8326l4.2784-2.317-2.9015-2.4958c-3.4162-2.9385-12.736-5.9197-18.507-5.9197-6.6443 0-6.0403-1.2717 2.5249-5.3164 8.0238-3.789 8.163-3.8114 15.907-2.5517 10.025 1.6307 15.18 4.1854 17.397 8.6223l1.7713 3.5445 4.6463-2.7707c5.7999-3.4586 6.6781-7.0832 1.019-4.2051-4.7583 2.4199-5.3873 3.1284-1.9532 2.1998 2.6808-0.72491 2.7053-0.68657 0.62376 0.97745-2.8025 2.2404-3.4631 2.1828-3.6515-0.31822-0.10516-1.396 1.4476-2.8285 4.8663-4.4894 2.7614-1.3416 4.7034-1.9258 4.3155-1.2981s-0.14372 1.1411 0.54259 1.1411 0.87612 0.60146 0.413 1.3508c-0.45915 0.74294 1.1435 0.17194 3.5615-1.2689 9.683-5.77 13.631-7.7835 14.299-7.293 0.38525 0.28293 0.45302 0.18328 0.15061-0.22143s4.9721-3.8869 11.721-7.7381 13.729-8.0404 15.511-9.3091 3.5503-2.3068 3.93-2.3068 4.6103-2.2776 9.4012-5.0613c5.8051-3.373 9.4265-4.8271 10.856-4.3591 1.5487 0.50683 1.7315 0.40558 0.65692-0.3639-1.1908-0.85277-1.0792-1.2443 0.55805-1.9566 1.1257-0.48981 2.4235-0.81084 2.8838-0.71338s0.83708-0.32505 0.83708-0.93891 0.75337-1.1161 1.6742-1.1161 1.6742-0.50225 1.6742-1.1161 0.75337-1.1161 1.6742-1.1161c2.1666 0 2.1666-1.8044 0-2.6358-0.92079-0.35334-1.6665-1.286-1.6571-2.0726 0.01195-1 0.3425-0.92664 1.099 0.244 0.94625 1.4642 1.0841 1.4509 1.099-0.10605 0.02603-2.7128-3.3363-5.1679-9.0416-6.6017-7.4161-1.8638-9.36-1.1055-57.35 22.369-36.137 17.677-44.132 21.273-45.464 20.45-0.65974-0.40775-0.88574-0.23365-0.50224 0.38687 0.68124 1.1023-10.12 6.5463-46.113 23.241-9.5148 4.4133-20.815 9.6729-25.112 11.688s-11.956 5.5888-17.021 7.9414c-9.2043 4.2759-9.8 4.8454-8.5304 8.154 0.57324 1.4938 2.8484 1.7396 14.788 1.5973l14.111-0.16816-10.603-0.97184c-5.8316-0.5345-11.487-0.99191-12.567-1.0165-1.7089-0.03881-1.7555-0.25349-0.35874-1.6503 0.88309-0.8831 2.5204-1.5703 3.6385-1.5272 1.8301 0.07062 1.8102 0.17415-0.1993 1.0377-2.8104 1.2076-3.5322 1.0988 12.277 1.8517 7.3663 0.35083 13.87 1.0822 14.454 1.6253 0.63332 0.58979-0.26559 1.0178-2.2322 1.0627-2.7221 0.06228-2.3257 0.36517 2.288 1.7482 6.5916 1.976 8.1841 2.1221 11.161 1.0242 2.1319-0.7863 2.1267-0.73087-0.11721 1.2338-1.2922 1.1314-2.7425 3.0616-3.2229 4.2893-0.81955 2.0943-0.91928 2.0599-1.6149-0.55806-0.71718-2.6991-0.78396-2.7174-2.0446-0.55805-1.2302 2.1071-1.3052 2.0675-1.3372-0.70691-0.04439-3.845-1.8827-4.2814-18.117-4.3003l-13.061-0.01523 2.4741 2.6696c1.3607 1.4683 3.9302 5.7162 5.71 9.4398s3.6183 6.534 4.0856 6.2451 2.143 0.06408 3.7236 0.78427c2.1785 0.99257 2.8776 2.1438 2.8891 4.7576 0.00839 1.8965 0.33281 4.6345 0.72095 6.0845 0.63022 2.3544 1.1822 2.5724 5.1608 2.0388 2.4503-0.32866 5.191-1.3334 6.0904-2.2329zm2.2237-15.556c0.60314-4.7256 1.0736-6.0921 1.7931-5.2085 0.74004 0.90878-0.62827 9.9519-1.5058 9.9519-0.49097 0-0.62023-2.1346-0.28727-4.7434zm-2.9716-0.49218c-0.04315-2.5727 0.4238-4.988 1.0376-5.3674 1.3563-0.83823 1.3563 4.6565 0 7.8127-0.74571 1.7354-0.97667 1.1911-1.0376-2.4454zm1.0376-15.886c0-0.52892 0.75337-1.2508 1.6742-1.6041s1.6742-0.20969 1.6742 0.31924-0.75337 1.2508-1.6742 1.6041-1.6742 0.20968-1.6742-0.31924zm2.6023-5.4535c5.4192-3.2671 5.2802-4.6758-0.46135-4.6758-3.5629 0-2.4138-2.7731 2.4755-5.9743 2.5391-1.6624 4.8466-2.7923 5.1279-2.511s-1.6706 1.9084-4.3374 3.6158l-4.8489 3.1044 5.5692 0.82833c4.7381 0.7047 6.2788 0.43171 10.324-1.8292 2.6151-1.4616 4.7547-2.3095 4.7547-1.8841 0 0.88386-19.78 11.73-22.322 12.241-0.92079 0.18483 0.75249-1.1269 3.7184-2.9149zm3.5582 1.9855c0.3914-0.63331 6.5736-4.148 13.738-7.8103s18.228-9.4223 24.585-12.8 11.857-6.141 12.221-6.141c1.7599 0-2.9052 2.7033-19.315 11.192-9.8217 5.0809-20.773 10.919-24.335 12.974-6.9185 3.9905-8.0175 4.4026-6.894 2.5846zm-31.217-4.3581c1.2825-1.2642 11.663-5.7789 11.663-5.0726 0 0.60005-10.738 6.1177-11.905 6.1177-0.4501 0-0.34124-0.47032 0.24193-1.0452zm13.896-6.1809c0-0.8524 6.8526-4.1511 7.428-3.5757 0.28815 0.28814-1.0913 1.3297-3.0655 2.3145-3.8706 1.9309-4.3625 2.0731-4.3625 1.2612zm32.007-5.1135c-12.774-1.4847-16.785-2.3463-15.273-3.2808 0.77005-0.47591 2.9704-0.46387 4.8896 0.02677s6.4589 1.2327 10.088 1.6491 7.6472 1.1811 8.9288 1.6994c2.7344 1.1059 1.5868 1.0933-8.6333-0.09452zm9.0025-4.5285c1.9045-2.1233 2.1925-3.1019 1.2039-4.0905s-0.58619-1.8606 1.682-3.6447c3.4416-2.7072 3.823-4.3775 1.0283-4.5035-1.0742-0.04846-1.4095-0.31338-0.74507-0.58872s4.4313 0.30622 8.3708 1.2924 8.2927 2.063 9.6739 2.393 2.5112 0.98598 2.5112 1.4577-3.5431-0.17588-7.8735-1.4391l-7.8735-2.2968-2.9192 2.9192c-2.1511 2.1511-2.6133 3.3031-1.7566 4.3783 0.86811 1.0895 0.28005 2.1499-2.3215 4.1865l-3.4841 2.7274 2.5034-2.791zm-20.919-0.41661c0-0.81737 8.0779-4.0282 8.6628-3.4433 0.27902 0.27903-1.3662 1.2901-3.656 2.2469-4.5382 1.8962-5.0068 2.0082-5.0068 1.1965zm10.045-4.4515c0-0.64891 9.5686-5.0702 10.821-4.9999 1.0288 0.05776-8.7098 5.4029-9.9837 5.4797-0.4604 0.02774-0.83708-0.18814-0.83708-0.47973zm73.896-14.043c1.0487-0.61143 1.6537-1.7713 1.3443-2.5775-1.1014-2.8702 13.809-12.13 19.816-12.306 2.2511-0.066 4.4959-0.52321 4.9885-1.016s-0.09366-0.5774-1.3026-0.18791c-2.1718 0.69966-2.1722 0.68698-0.0318-1.057 1.2756-1.0394 2.4408-1.3212 2.8337-0.68547 1.0601 1.7153 7.9003-2.9596 7.1586-4.8924-0.43444-1.1321 1.2951-2.7279 5.5739-5.1427 3.4121-1.9257 6.0917-3.9656 5.9547-4.5331s5.0005-4.0338 11.417-7.7027c8.2265-4.7042 11.909-6.2766 12.492-5.3335 0.93287 1.5094-0.89553 4.221-2.8098 4.167-0.69217-0.01953-0.28355-0.77289 0.90803-1.6742s1.7994-1.6387 1.3507-1.6387c-1.5754 0-9.8657 4.6265-9.3014 5.1908 0.31384 0.31384 1.5851 0.02768 2.825-0.63591s2.6641-1.1864 3.1649-1.1618-0.51512 0.81725-2.2575 1.7615-2.9333 1.9515-2.6465 2.2383 3.0936-0.99508 6.2372-2.8487c5.4346-3.2043 8.3872-3.4011 3.2925-0.21943-8.2454 5.1493-16.45 8.9447-11.762 5.4412 3.0214-2.2582 0.75249-4.628-2.8566-2.9836-2.4391 1.1113-2.6903 1.6332-1.6152 3.3547 0.70023 1.1212 1.041 2.2256 0.75735 2.4542-1.7628 1.4203-18.258 10.847-18.98 10.847-0.48496 0-1.0492 0.40161-1.2538 0.89245s-6.399 4.3326-13.765 8.5373-15.142 8.8256-17.28 10.269-4.3977 2.6084-5.0225 2.5898-0.27797-0.53419 0.77079-1.1456zm-8.1068-3.1996 2.7289-2.0974-4.6854-1.4038c-3.5981-1.078-5.3443-1.1036-7.5249-0.11002-3.2572 1.4841-8.7225 1.5197-12.779 0.08331-2.0271-0.71771-1.1112-0.85717 3.3483-0.50984 3.5257 0.27459 7.5462-0.11689 9.4457-0.91974 2.5394-1.0734 4.167-1.1022 7.0115-0.12433 5.5425 1.9054 6.7579 3.528 4.1308 5.5149-1.1947 0.90356-2.6745 1.6476-3.2883 1.6535s0.11191-0.93314 1.6128-2.0867zm8.6925-4.6881c0.7571-0.76276 1.6577-1.1057 2.0013-0.76205s-0.2758 0.96772-1.3765 1.3868c-1.5907 0.60569-1.7189 0.47749-0.6248-0.6248zm-24.067-2.655c1.1822-1.1822 11.442-6.0369 11.865-5.6141 0.24462 0.24461-2.0997 1.7342-5.2096 3.3101-5.2896 2.6804-7.9544 3.603-6.6555 2.304zm28.83-0.35573c0-0.60379-3.5157-2.1657-7.8127-3.4708s-7.8127-2.556-7.8127-2.7796 0.77945-0.70562 1.7321-1.0712 1.48-0.25671 1.1718 0.24192 2.0514 1.5621 5.2435 2.3632 6.391 1.9219 7.1086 2.4906c1.3428 1.0641 7.4513-1.6667 21.296-9.5205 3.8366-2.1764 6.9756-3.5328 6.9756-3.0143s-2.1346 2.0479-4.7434 3.3985-8.887 4.7066-13.951 7.4578-9.2079 4.5081-9.2079 3.9043zm1.1161-6.8957c-1.4881-0.96172-1.4881-1.0819 0-1.0819 0.92079 0 2.4275 0.48685 3.3483 1.0819 1.4881 0.96171 1.4881 1.0819 0 1.0819-0.92079 0-2.4275-0.48685-3.3483-1.0819zm-5.9949-4.8172c3.42-1.7294 6.4352-2.9273 6.7004-2.6621s-1.0407 1.113-2.9019 1.8839c-3.8008 1.5743-4.3436 2.9674-1.4309 3.6719 1.0742 0.25985-0.41809 0.42253-3.3163 0.36152l-5.2695-0.11093 6.2182-3.1443zm33.898-4.0105c0-0.84448 10.1-5.9986 10.659-5.4395 0.18943 0.18943-2.1314 1.6646-5.1574 3.2782s-5.5018 2.5862-5.5018 2.1612zm-5.553-5.7065c-2.1333-0.50178-4.2332-0.6933-4.6663-0.4256s-1.103-0.02372-1.4886-0.64759c-0.40351-0.65291 0.48424-1.1343 2.0918-1.1343 1.5361 0 3.4942-1.0013 4.3514-2.2251s1.8387-1.945 2.1811-1.6025 4.2413-1.1997 8.6641-3.427 8.2962-3.795 8.6075-3.4837-2.5025 1.9351-6.253 3.6084-6.819 3.3971-6.819 3.8306 1.587 1.1055 3.5266 1.4934 3.1977 1.0342 2.7958 1.4361-2.7049 0.07925-5.1178-0.71705c-4.2164-1.3915-9.0757-0.84549-7.4229 0.83413 0.43885 0.44594 2.3942 1.4004 4.3451 2.121 4.1543 1.5344 1.18 1.7448-4.796 0.33923zm26.759-16.651c0-0.65009 0.50225-1.182 1.1161-1.182 1.4302 0 1.4302 0.79027 0 1.6742-0.61386 0.37938-1.1161 0.1579-1.1161-0.49218zm-170.63 122.81c-0.89601-0.56753-1.1735-1.5642-0.66463-2.3876 0.56872-0.9202 0.4239-1.1355-0.41505-0.61696-1.9876 1.2284-1.5241 4.015 0.66463 3.9959 1.5448-0.01352 1.6315-0.22081 0.41505-0.99133zm4.3284-2.1539c0-0.51156-0.75337-0.93009-1.6742-0.93009s-1.6742 0.41853-1.6742 0.93009 0.75337 0.93008 1.6742 0.93008 1.6742-0.41854 1.6742-0.93008zm-5.2429-5.9884c1.9021-1.4259 1.7846-1.9441-2.1579-9.5113-2.2933-4.4018-4.5546-7.7654-5.025-7.4746s-1.408-0.50399-2.0835-1.7661c-3.4931-6.5269-5.229 4.8609-2.1263 13.948 1.2581 3.6847 2.4933 7.3449 2.7449 8.1337 0.47755 1.4973 4.036 0.12696 8.6479-3.3301zm-8.7084-4.9728c-2.1126-5.0562-1.8114-8.6014 0.77251-9.0938 2.4092-0.45901 5.6258 5.5383 5.154 9.6095-0.54955 4.7418-3.8498 4.4547-5.9265-0.5157zm3.9064-0.73067c0-2.7416-2.7503-7.322-3.7789-6.2934-0.8582 0.85819 1.7161 8.8703 2.85 8.8703 0.51087 0 0.92885-1.1596 0.92885-2.5769zm6.1386 8.1575c0.37938-0.61385 0.18753-1.1161-0.42632-1.1161s-1.4265 0.50225-1.8059 1.1161-0.18754 1.1161 0.42631 1.1161 1.4265-0.50225 1.8059-1.1161zm-92.522-2.968 3.0996-2.031-10.966-1.268c-9.611-1.1113-11.361-1.0438-14.156 0.54627-4.1731 2.3736-4.0429 3.4703 0.42351 3.5669 2.8017 0.06059 3.1424 0.26861 1.4967 0.91392-1.1718 0.45951 2.1745 0.71562 7.4363 0.56914 7.0304-0.19571 10.389-0.80479 12.667-2.2972zm-30.528 1.1127c-0.76733-0.30961-2.0229-0.30961-2.7903 0s-0.13951 0.56296 1.3951 0.56296 2.1625-0.25334 1.3951-0.56296zm128.07-0.37693c0.92078-0.59506 1.1719-1.0819 0.55805-1.0819s-1.8695 0.48686-2.7903 1.0819-1.1719 1.0819-0.55805 1.0819 1.8695-0.48685 2.7903-1.0819zm-135.33-0.76936c-1.0742-0.28072-2.8321-0.28072-3.9064 0s-0.19532 0.51043 1.9532 0.51043 3.0274-0.2297 1.9532-0.51043zm10.847-3.9412c-0.79401-2.0692-5.3017-3.1021-13.537-3.1021-5.5903 0-5.954 0.15764-4.9014 2.1243 0.86499 1.6162 3.0766 2.3648 9.2471 3.1296 8.5706 1.0624 10.272 0.66403 9.1916-2.1518zm4.0365-0.25295c0.56142 0.34697 1.0208 0.09899 1.0208-0.5511s0.97065-1.182 2.157-1.182 2.4781-1.0118 2.8706-2.2484 1.145-1.9818 1.6722-1.656 1.2741 0.08203 1.6597-0.54184-0.09774-1.1343-1.074-1.1343-2.063 0.75049-2.415 1.6678-1.0896 1.3899-1.6391 1.0502-0.99916-0.05598-0.99916 0.63033-0.50225 0.93744-1.1161 0.55806-1.1161-0.18674-1.1161 0.4281-1.0045 0.92444-2.2322 0.688c-2.498-0.48107-2.5369-0.41855-1.4693 2.3635 0.46862 1.2212 0.9359 1.469 1.2114 0.64239 0.24671-0.74012 0.90791-1.0618 1.4693-0.71478zm30.842-1.2053c3.7778-1.5784 3.9443-1.8395 2.2524-3.5315-1.5081-1.5081-2.129-1.5764-3.5572-0.39107-1.0197 0.84627-1.7302 0.95966-1.7302 0.27616 0-0.63786 0.62781-1.4131 1.3951-1.7227s-0.36273-0.62812-2.5112-0.70778-5.9494-0.40667-8.4463-0.72671c-3.3055-0.42368-4.9359-0.1048-5.9962 1.1728-1.2703 1.5306-1.0196 1.7547 1.9628 1.7547 1.8805 0 3.7734 0.57321 4.2064 1.2738 0.56658 0.91674-0.83216 1.1182-4.99 0.71868-3.1775-0.30532-6.0339-0.13988-6.3476 0.36763-0.6977 1.1289 2.736 1.9594 10.124 2.4486 3.0693 0.20322 6.4756 0.46004 7.5696 0.57068s3.8248-0.56584 6.0684-1.5033zm-6.8805-1.3298c-0.32632-0.85036-0.09681-1.2393 0.51001-0.86422s1.111 0.02444 1.1204-0.77911c0.01242-1.0616 0.31284-1.0034 1.099 0.21315 1.4956 2.3143 1.3821 2.9763-0.51003 2.9763-0.89437 0-1.8931-0.69576-2.2194-1.5461zm43.746 2.2212c-2.302-0.24078-4.1854-0.90973-4.1854-1.4865s-0.56374-1.0487-1.2528-1.0487c-0.86555 0-0.82331 0.51747 0.13666 1.6742 0.83551 1.0067 3.0035 1.5994 5.4382 1.4865l4.0487-0.18763-4.1854-0.43781zm13.672-1.1966c0-3.2815-3.1388-6.9704-6.4696-7.6037-4.3186-0.82103-5.1482-0.28078-4.1925 2.7303 0.87731 2.7642 10.662 7.2366 10.662 4.8734zm-87.658-3.642c-0.48211-0.78008 0.548-1.025 3.0034-0.71396 2.0554 0.26032 2.8583 0.25743 1.784-0.00644s-1.9532-0.90007-1.9532-1.4138-1.0045-0.67131-2.2322-0.35025c-1.248 0.32636-2.2322 0.03424-2.2322-0.66255 0-0.72218-1.76-1.1845-4.1854-1.0994l-4.1854 0.14693 3.9064 0.82225c3.653 0.76893 3.5306 0.83178-1.8873 0.96918-5.4832 0.13905-7.8563 1.1923-6.2671 2.7815 1.2806 1.2806 15.05 0.82291 14.249-0.47357zm-10.818-0.73769c2.006-0.2484 5.0195-0.24327 6.6966 0.01139s0.03582 0.4579-3.6473 0.45164-5.0553-0.21463-3.0493-0.46303zm60.353-1.9262c-0.2105-0.18608-3.8985-0.69199-8.1955-1.1243l-7.8127-0.78595 5.0225 2.7286c4.613 2.5061 5.2812 2.5978 8.1955 1.1243 1.7452-0.88237 3.0008-1.7566 2.7903-1.9426zm25.665-1.1022c-0.82537-0.68688-12.351-1.6256-11.677-0.95105 0.39755 0.39754 3.1025 1.552 6.0109 2.5656 4.4569 1.5531 5.3475 1.5957 5.6658 0.27128 0.20773-0.86431 0.20773-1.7129 0-1.8858zm23.619 1.6051c0-0.61386-0.87893-1.1084-1.9532-1.099-1.6692 0.01461-1.7098 0.1744-0.27903 1.099 2.1063 1.3612 2.2322 1.3612 2.2322 0zm-89.079-0.76242c-0.80569-0.32241-1.7683-0.28277-2.1392 0.0881s0.28834 0.63466 1.4649 0.5862c1.3002-0.05355 1.5647-0.31802 0.67432-0.6743zm81.188-1.1908c0.10959 2.7284 2.9484 2.4597 2.9484-0.27902 0-1.2277-0.32843-2.2322-0.72986-2.2322-0.6403 0-4.3723-11.733-4.3723-13.746 0-0.42013 0.72372-0.76387 1.6083-0.76387 2.0086 0 2.4235-0.70574 3.2801-5.5805 0.5401-3.0734 0.44543-3.4304-0.44395-1.6742-0.95413 1.8841-1.0337 1.739-0.51049-0.9306 0.35897-1.8313 0.18049-2.8912-0.42394-2.5176-1.2599 0.77864-2.3939-1.8709-2.3939-5.5932 0-2.3443 0.38565-2.6234 2.7903-2.0199 1.5346 0.38517 2.752 0.26918 2.7054-0.25776-0.19305-2.1783-3.1017-8.6377-3.1956-7.0966-0.09067 1.4881-0.22222 1.4881-1.1839 0-0.59507-0.92079-1.0819-2.4275-1.0819-3.3483 0-1.4881 0.12877-1.4881 1.159 0 0.95596 1.3809 1.0969 1.2831 0.8047-0.55805-0.19487-1.2277-0.79907-1.9811-1.3426-1.6742-1.0359 0.58489-2.6869-2.7153-2.7919-5.5805-0.05454-1.4881 0.05885-1.4881 1.0206 0 0.59506 0.92078 1.0896 1.158 1.099 0.52707s-0.9874-2.0072-2.2151-3.0584c-2.2606-1.9356-3.1707-4.8771-1.1161-3.6073 1.3594 0.84012 1.4283-0.56955 0.12819-2.621-0.52454-0.82773-1.8564-1.33-2.9597-1.1161-3.278 0.63543-2.5459 7.6415 2.3978 22.949 0.54007 1.6722 0.44951 1.724-0.56037 0.32041-0.66251-0.92079-1.9821-4.3198-2.9324-7.5532-1.5773-5.3669-1.9239-5.7742-3.9785-4.6746-4.2827 2.292-4.7814 5.5908-2.1706 14.357 1.3203 4.4331 2.2182 8.6069 1.9955 9.275-0.33728 1.0119-4.3032-11.813-6.1151-19.775-0.4184-1.8386-0.29711-1.937 0.68786-0.55805 1.0402 1.4564 1.1981 1.4299 1.2129-0.20303 0.0094-1.0324 1.5238-2.9501 3.3654-4.2614 3.88-2.7628 4.1594-5.1717 1.2671-10.926-2.0609-4.1006-3.8388-9.3209-5.0329-14.777-0.55517-2.537-1.0658-2.7809-5.0304-2.4028l-4.4125 0.42079 1.6485 5.5511c0.90667 3.0531 1.4293 6.1433 1.1614 6.8672s-0.85471-0.19058-1.304-2.0322-1.5328-5.9215-2.4079-9.0665l-1.5911-5.7182-4.7054 0.47095c-7.8792 0.78863-18.009-1.0061-18.445-3.2678-0.33716-1.7507 0.75937-1.9503 10.713-1.9503h11.088l-0.5334-2.7903c-0.51314-2.6843-0.85686-2.7908-9.0531-2.8055-4.6858-0.00838-9.7233-0.33733-11.194-0.73098l-2.6747-0.71575 0.81924 23.332c0.4506 12.833 0.90086 23.391 1.0006 23.463s5.7725 0.47165 12.606 0.88873l12.425 0.75829-0.57528-5.3531c-0.99798-9.2865 0.4888-4.7224 2.4993 7.6726 1.0625 6.5503 1.6915 12.577 1.3978 13.393s-0.87851-1.0276-1.2996-4.0969c-1.5662-11.417-0.3156-10.416-13.506-10.81-6.4566-0.19292-12.2-0.19358-12.764-0.00145s-0.82654 2.4522-0.58459 5.0225c1.4226 15.112 1.6677 25.46 0.5872 24.792-0.63986-0.39545-1.1748-4.3307-1.1887-8.7449s-0.4993-14.119-1.0786-21.567-1.1175-20.094-1.196-28.103c-0.11533-11.767-0.46135-14.684-1.8029-15.199-4.5066-1.7294-4.826-1.033-4.826 10.524 0 7.3922 0.41575 11.161 1.2312 11.161 1.6206 0 0.96005 62.68-0.67316 63.88-0.66371 0.48761-0.46667 0.82691 0.48612 0.83708 0.88122 0.00939 2.7222-1.0351 4.091-2.321 2.6607-2.4996 12.023-3.5582 16.908-1.9118 4.0936 1.3797 2.866 9e-3 -2.172-2.4251-3.1345-1.5144-5.0538-1.8921-5.8038-1.1421-0.61629 0.61629-2.449 1.1205-4.0726 1.1205s-3.864 1.0076-4.9784 2.239-2.2774 1.9879-2.5844 1.681c-1.3124-1.3123 3.7348-5.0362 6.8259-5.0362 1.8322 0 3.895-0.77081 4.5838-1.7129 1.1046-1.5107 1.9098-1.3794 6.8197 1.1114 5.7112 2.8974 17.286 4.0475 17.286 1.7176 0-0.61385 2.7992-1.1161 6.2204-1.1161 5.3211 0 6.1669 0.28236 5.8503 1.9532-0.25869 1.365-1.6277 2.0575-4.5463 2.2996-5.8888 0.48846-5.2116 2.4439 0.84637 2.4439 4.1921 0 5.0225 0.35096 5.0225 2.1228 0 1.32 1.5828 2.9501 4.1854 4.3104 3.7735 1.9724 4.26 2.0106 4.944 0.38845 0.6668-1.5814 0.76813-1.5628 0.83708 0.15397zm-7.1962-7.2547c-0.41544-1.995-1.711-6.5982-2.8789-10.229-2.0392-6.3397-2.7435-10.573-1.5622-9.3923 1.1343 1.1343 6.902 23.249 6.0635 23.249-0.47682 0-1.2068-1.6323-1.6223-3.6273zm-33.184-10.596c-4.7574-0.20921-8.6501-0.73595-8.6505-1.1705s2.5082-0.61628 5.5746-0.40379l5.5753 0.38634-0.53641-7.083c-0.37141-4.9043-0.23215-6.2247 0.4527-4.2927 0.544 1.5346 1.0392 4.6737 1.1004 6.9757 0.08763 3.2968 0.5521 4.1854 2.1877 4.1854 1.142 0 4.4648 0.32737 7.3839 0.72748l5.3075 0.72747-0.66367-7.1451c-0.69444-7.4763 0.55572-5.399 1.9131 3.1789l0.75062 4.7434-5.8727-0.2246c-3.23-0.12354-9.7652-0.3958-14.523-0.60501zm38.988-6.6858c-2.5916-7.9233-2.2143-10.078 0.44988-2.5694 1.1902 3.3543 1.9982 6.5959 1.7956 7.2036s-1.2131-1.4777-2.2455-4.6342zm-38.883-17.597c-0.2197-2.7624-0.01915-5.0225 0.44567-5.0225s0.84512 2.2601 0.84512 5.0225c0 6.4768-0.77567 6.4768-1.2908 0zm37.631-0.1317c-1.0476-4.174 0.00854-4.5333 1.4204-0.48333 0.6529 1.8729 0.76541 3.4053 0.25004 3.4053s-1.2671-1.3149-1.6704-2.922zm-3.3034-11.141c-1.0789-3.4227-1.7266-6.4582-1.4392-6.7456s1.4038 2.2794 2.4809 5.7039 1.7248 6.46 1.4392 6.7456-1.402-2.2812-2.4809-5.7039zm-15.51-4.7369c-1.9234-6.918-2.3748-9.9489-1.3257-8.8997 0.92108 0.92109 3.9913 13.442 3.5907 14.644-0.20031 0.60098-1.2196-1.9839-2.265-5.7442zm-7.3027-4.2198c-0.09824-1.3044-0.44315-4.0668-0.76645-6.1386-0.5383-3.4494-0.48684-3.535 0.61086-1.0156 0.65929 1.5132 1.0042 4.2755 0.76645 6.1386-0.25544 2.0018-0.50531 2.4172-0.61086 1.0156zm-1.8917-13.401c-0.38808-1.7605-0.89901-3.8288-1.1354-4.5961s0.00173-1.3951 0.52917-1.3951 1.1938 1.8834 1.4807 4.1854c0.63496 5.0934 0.09565 6.207-0.87449 1.8059zm1.7131 75.484c0-0.61386-1.1301-1.1238-2.5112-1.1332s-3.2646-0.51678-4.1854-1.1275c-1.1371-0.75422 1.2795-0.87627 7.5337-0.38049 8.5674 0.67916 9.2017 0.58291 9.1198-1.3837-0.04909-1.1775-0.33746-1.4957-0.65106-0.71853-0.78416 1.9433-2.6091 1.7482-2.6091-0.27902 0-1.0478-1.1484-1.7275-3.0693-1.8166-1.6881-0.07835-4.0738-0.29213-5.3015-0.47509s-6.7764-0.64734-12.33-1.032c-9.1946-0.63675-10.28-0.49874-12.127 1.5422-1.8288 2.0208-1.8589 2.4113-0.30548 3.9647 2.7349 2.7348 7.3029 2.1798 8.7823-1.0672 0.90159-1.9788 2.1524-2.7903 4.301-2.7903 2.4582 0 3.1532 0.61762 3.6845 3.2744 0.53839 2.6919 1.3078 3.355 4.3249 3.7277 2.0185 0.24934 4.0467 0.53371 4.5071 0.63195s0.83708-0.32362 0.83708-0.93748zm-38.041-0.41313c-0.25578-0.22721-5.9898-0.74607-12.742-1.153-8.4625-0.51001-11.757-0.38696-10.603 0.39602 1.4982 1.0166 24.476 1.7616 23.345 0.75699zm26.88-1.8967c0-1.7544-0.60118-2.2241-2.4998-1.9532-3.7097 0.52926-4.0357 4.263-0.37227 4.263 2.1602 0 2.8721-0.57253 2.8721-2.3098zm54.689 1.1937c0-1.455-7.4716-1.455-8.3708 0-0.41658 0.67405 1.1045 1.1161 3.8405 1.1161 2.4917 0 4.5303-0.50225 4.5303-1.1161zm-29.461-3.046c-1.1345-1.1345-2.0706 0.57356-1.1398 2.0797 0.70317 1.1378 0.96607 1.1387 1.3441 0.00451 0.25849-0.77546 0.16653-1.7134-0.20434-2.0842zm3.7901 1.3719c0-0.92079-0.50225-1.6742-1.1161-1.6742s-1.1161 0.75337-1.1161 1.6742 0.50224 1.6742 1.1161 1.6742 1.1161-0.75337 1.1161-1.6742zm17.653-3.1554c0.2746-2.3196 0.9574-2.9832 3.0693-2.9832 1.4939 0 2.7161-0.19043 2.7161-0.42318s-1.2907-3.2424-2.8682-6.6881c-1.8384-4.0155-2.5969-7.1196-2.1126-8.6454 0.52234-1.6457 0.36033-2.1362-0.52487-1.5892-0.87802 0.54265-1.0875-0.02725-0.66651-1.8134 0.83596-3.547-0.64382-5.4467-3.6336-4.6648-2.8004 0.73232-3.185 2.0836-0.96761 3.3997 1.566 0.92954 7.7924 18.197 6.8877 19.102-0.5409 0.5409-2.8109-4.7589-2.8109-6.5626 0-1.3806-0.65649-1.3173-3.6425 0.35169-1.3729 0.76732-2.627 1.4423-2.787 1.5001-0.24367 0.08787 1.354 5.0787 3.6585 11.428 0.87473 2.4102 3.2995 0.82248 3.6823-2.4111zm-3.1434-1.8671c0-1.4302 0.79027-1.4302 1.6742 0 0.37939 0.61386 0.15791 1.1161-0.49218 1.1161s-1.182-0.50225-1.182-1.1161zm12.277 2.9113c0-1.9076-5.4935-3.4447-6.984-1.9542-1.7309 1.7309 0.14387 3.5074 3.7016 3.5074 2.06 0 3.2824-0.57842 3.2824-1.5532zm-35.006-5.6946 3.1969-1.6673-3.0693-0.00687c-1.6881-0.00379-3.0693 0.4665-3.0693 1.045s-2.1346 1.2442-4.7434 1.4792l-4.7434 0.42725 4.6159 0.19498c2.5387 0.10725 6.0545-0.55528 7.8127-1.4723zm104.75-3.9005c0.39102-0.63267-0.05699-0.81978-1.0502-0.43864-1.9336 0.74198-2.2873 1.542-0.6819 1.542 0.57763 0 1.3571-0.4965 1.7321-1.1033zm8.3787-6.0934c0-1.4731 10.456-7.6458 11.382-6.7195 0.30374 0.30373 2.4415-0.23714 4.7506-1.2019s3.8918-2.0607 3.5172-2.4353 0.19892-1.6917 1.2745-2.9268c1.9578-2.2483-7.6513 2.5432-18.347 9.1482-4.4358 2.7394-7.6156 7.4458-4.1258 6.1067 0.85131-0.32668 1.5478-1.2138 1.5478-1.9713zm12.277-7.7663c0-0.22316 1.2556-1.2285 2.7903-2.234s2.7903-1.395 2.7903-0.86558-1.2556 1.5348-2.7903 2.234-2.7903 1.0887-2.7903 0.86556zm-7.4163 6.611c0.39346-1.0254 1.3581-1.3779 2.5347-0.92644 1.3966 0.53592 1.6548 0.33297 0.97527-0.76654-0.67541-1.0928-0.42422-1.3036 0.93302-0.78274 1.2216 0.46877 1.8572 0.14191 1.8572-0.9551 0-1.4675-0.36856-1.4735-3.0693-0.05003-1.6881 0.88977-4.0738 2.3934-5.3015 3.3415-1.8702 1.4442-1.9348 1.7295-0.39844 1.7592 1.0086 0.01952 2.1196-0.70941 2.469-1.6198zm29.486-16.498c0.78215-0.6262 1.2055-1.3551 0.94079-1.6199-0.57704-0.57703-7.3854 2.8279-7.3854 3.6935 0 0.83357 4.7038-0.67996 6.4446-2.0737zm-4.2124-2.4434 5.0225-2.6382-3.1704-0.80611c-1.7703-0.45012-5.1433-0.21502-7.6379 0.53238-4.3249 1.2958-4.4052 1.4073-2.5162 3.4947 2.3836 2.6339 2.1464 2.6505 8.302-0.58281zm-7.5337-3.8936c3.8207-1.9151 3.8455-2.8523 0.13986-5.2804-2.7606-1.8088-3.12-1.81-6.2374-0.02093-1.8194 1.0442-3.7658 1.6156-4.3252 1.2698s-1.0173-0.0431-1.0173 0.67266-0.75337 1.0123-1.6742 0.65895-1.6742-0.15594-1.6742 0.43864 1.13 1.0989 2.5112 1.1206 3.7669 0.75626 5.3015 1.6322 3.0414 1.4699 3.3483 1.3198l3.6273-1.8114zm11.856-1.9111c-1.328-1.6013-7.5693-4.8496-9.3181-4.8496-1.9596 0 2.775 4.701 5.5541 5.5148 4.9608 1.4526 5.4489 1.3664 3.764-0.66526zm-24.412-3.1754c2.7624-1.4792 4.1537-2.7121 3.0919-2.7398-2.7139-0.0709-10.905 3.3356-10.905 4.5352 0 1.6286 2.4848 1.0576 7.8127-1.7954zm-110.06-15.99c0.31353-0.50733 0.2735-2.0565-0.08899-3.4427-0.49445-1.8908-0.89487-2.1482-1.6032-1.0308-0.75812 1.196-0.95091 1.1596-0.97835-0.18467-0.02836-1.389-0.20056-1.4115-1.0112-0.13161-0.69106 1.0911-1.5026-0.26564-2.7732-4.6362-2.1812-7.5032-2.2035-7.9779-0.29088-6.1912 0.82791 0.77341 1.316 2.4255 1.0846 3.6714-0.32374 1.7431-0.15072 1.6491 0.75076-0.40782 1.2845-2.931 0.46169-7.2263-1.1889-6.2062-0.56966 0.35207-1.0357 0.0786-1.0357-0.60771s-0.46609-0.95979-1.0358-0.60772-1.3569-0.37166-1.7494-1.6083-1.1663-2.2484-1.7195-2.2484-0.79569 0.6278-0.53878 1.3951 1.8074 5.9154 3.4456 11.44 3.1997 10.422 3.4701 10.882c0.66333 1.1294 4.5508 1.0664 5.2626-0.08534zm-2.2673-7.8537c0.38571 0.87135 0.55613 0.56766 0.39884-0.7108-0.35575-2.8916-2.341-2.8916-2.8 0-0.26598 1.6757-0.09478 1.8529 0.68669 0.7108 0.87888-1.2845 1.1459-1.2845 1.7145 0zm-11.006-13.546c-0.40448-1.8416-0.30486-3.3483 0.22137-3.3483 0.86169 0 0.94929-2.5854 0.48219-14.23-0.08004-1.995-0.6352-3.6273-1.2337-3.6273s-0.82894 1.6177-0.50686 3.6273c0.53925 3.3647 0.45762 3.304-1.1272-0.83708-2.0403-5.3314-2.0414-5.3392-0.62604-4.4644 0.61385 0.37939 1.1084 0.03235 1.099-0.7712-0.02031-1.7362-2.1655-5.3128-2.2151-3.6932-0.05412 1.7671-2.198-2.0431-2.198-3.9064 0-1.4881 0.13381-1.4881 1.2043 0 1.0016 1.3924 1.0926 1.33 0.54095-0.37031-0.36483-1.1244-0.67102-2.6312-0.68042-3.3483-0.0118-0.89937-0.29726-0.86237-0.92025 0.11929-0.61505 0.96913-1.2884 0.16802-2.1107-2.5112-0.66411-2.1639-0.7967-3.9344-0.2946-3.9344s0.74462-0.87893 0.53897-1.9532-0.41233-2.3299-0.4593-2.7903-1.0899-0.83708-2.3176-0.83708-2.2322-0.55814-2.2322-1.2403c0-0.82817-1.3908-0.98053-4.1854-0.45852-2.302 0.43-4.3132 0.90669-4.4695 1.0593s0.27853 1.8914 0.96613 3.8638 0.974 3.8625 0.63643 4.2-1.1858-1.5108-1.885-4.1074l-1.2713-4.7211-6.2786 0.73792c-3.4532 0.40586-6.3917 0.85102-6.5299 0.98925s0.0353 8.1043 0.38562 17.702l0.63694 17.451 4.0216 0.66522c5.7277 0.94744 17.979 0.84685 17.939-0.14728-0.01857-0.46039-1.2846-5.3573-2.8134-10.882s-3.0298-11.552-3.3356-13.393c-1.1745-7.0745 2.4311 4.2575 6.836 21.485l4.352 17.021h4.2826c4.1779 0 4.2647-0.08193 3.5472-3.3483zm-3.3483-8.9288c-0.41903-1.3202-0.51074-2.6516-0.20381-2.9585s0.90089 0.52214 1.3199 1.8424 0.51074 2.6516 0.20381 2.9585-0.90089-0.52213-1.3199-1.8424zm-2.0581-6.3335c-0.32328-1.1205-1.6604-5.7267-2.9713-10.236s-2.177-8.4052-1.9246-8.6575 1.854 4.0892 3.5592 9.648 2.8358 10.371 2.5124 10.695-0.85245-0.32885-1.1757-1.4494zm-9.4972 14.983c-0.82698-0.82484-4.3163-1.3951-8.536-1.3951-8.2414 0-8.2404 1.3381 0.00136 1.9641 3.0693 0.2331 6.5599 0.51436 7.7569 0.625 1.743 0.16111 1.8978-0.07668 0.77766-1.194zm21.025-0.93008c0.0094 0.86962 0.28702 1.3112 0.61693 0.9813 0.80731-0.8073-1.8281-6.4688-3.0112-6.4688-1.1125 0-1.2205 2.4268-0.22358 5.0248 0.56907 1.483 0.90428 1.5579 1.6571 0.37031 0.77094-1.2162 0.94683-1.1993 0.96079 0.09244zm249.73-7.5792c4.442-1.1602 7.8023-1.6662 7.4675-1.1244s-2.7554 1.5256-5.379 2.1862c-2.8192 0.70986-4.7702 1.8508-4.7702 2.7896 0 0.87368 0.41854 1.5885 0.9301 1.5885s0.93008-0.43401 0.93008-0.96447 2.2973-1.8418 5.105-2.9141 5.3716-2.6444 5.6975-3.4935 1.0421-1.266 1.5916-0.9264 0.99916 0.08563 0.99916-0.56446 0.37668-1.0825 0.83708-0.96084 1.9963-0.17262 3.4132-0.65387c1.9685-0.66859 2.495-1.5741 2.2322-3.8387-0.26401-2.2751-1.5108-3.5136-5.3664-5.3308-7.977-3.7596-19.777-6.3128-25.578-5.5342-12.845 1.7245-13.167 1.83-14.498 4.7511-1.7363 3.8108-0.67451 4.5972 2.4118 1.7863 1.3788-1.2557 3.7624-2.8928 5.2971-3.6379 2.4722-1.2003 2.4086-1.0299-0.55805 1.4945-1.8416 1.5671-3.7546 2.8673-4.2513 2.8894-2.1805 0.09693 0.73829 2.2724 3.0488 2.2724 2.821 0 8.1931 4.7579 9.6313 8.53 0.50146 1.3153 0.63077 3.5754 0.28736 5.0225-0.56973 2.4008-0.4901 2.4609 0.91026 0.68671 0.84403-1.0694 5.1689-2.8935 9.6108-4.0537zm-1.9377-2.436c0-0.47896 3.3902-1.9898 7.5337-3.3574l9.2079-3.0455c1.1552-0.38571 1.3282-0.18598 0.55805 0.64431-1.4901 1.6066-17.3 6.8691-17.3 5.7586zm60.294 2.3106c-1.089-0.67306-1.061-0.98102 0.12824-1.4107 1.9813-0.7158-0.12672-4.581-2.7836-5.1039-1.3725-0.27012-1.8336 0.47874-1.8336 2.978 0 5.5097 0.97419 7.0242 3.6107 5.6132 1.6601-0.88845 1.8965-1.4474 0.87825-2.0767zm4.9023-3.3475c-0.72281-0.72281-1.1002-0.34547-1.1002 1.1002s0.37736 1.823 1.1002 1.1002 0.7228-1.4775 0-2.2003zm-33.946-0.01595c0-0.61386-0.50224-1.1161-1.1161-1.1161s-1.1161 0.50224-1.1161 1.1161 0.50225 1.1161 1.1161 1.1161 1.1161-0.50225 1.1161-1.1161zm8.9288-2.3166c0-0.52892-0.75338-0.67257-1.6742-0.31924s-1.6742 1.0752-1.6742 1.6041 0.75337 0.67258 1.6742 0.31924 1.6742-1.0752 1.6742-1.6041zm-3.3483-1.5898c1.5361-1.8509 0.83938-2.0094-4.3068-0.98022-1.9083 0.38168-3.1971 1.135-2.8639 1.6742 0.97616 1.5795 5.6602 1.1262 7.1707-0.69394zm-1.73-4.024c1.7707-1.6675-3.0452-1.068-6.0828 0.75721-2.7729 1.6662-2.7659 1.6722 1.1161 0.95898 2.1485-0.39472 4.3835-1.167 4.9667-1.7162zm-63.562 0.37952c1.9355-1.422 4.0273-5.8425 2.7647-5.8425-0.63832 0-1.4486 0.75049-1.8006 1.6678s-1.0325 1.4252-1.5122 1.1286-1.1335 0.45976-1.4527 1.6806c-0.60266 2.3045 0.08442 2.7734 2.0008 1.3655zm70.594 0.08481c-1.0742-0.28073-2.8321-0.28073-3.9064 0s-0.19532 0.51042 1.9532 0.51042 3.0274-0.22969 1.9532-0.51042zm-7.9532-2.579c1.5714 0 2.4831-0.486 2.0937-1.1161-1.4866-2.4053-11.944-0.76811-10.989 1.7204 0.42636 1.1111 1.2941 1.2274 3.3437 0.44807 1.5224-0.5788 4.0205-1.0524 5.5514-1.0524zm-5.161-4.2277c0-1.5232-3.8893-4.7012-5.7535-4.7012-2.4947 0-2.5884 0.97998-0.39343 4.1138 1.1007 1.5715 2.4258 2.1795 3.9064 1.7923 1.2323-0.32225 2.2406-0.86448 2.2406-1.205zm11.765-0.31099c1.2083-1.9551-0.25511-2.4718-4.6601-1.6454-3.074 0.57669-3.7433 1.0443-2.5633 1.791 2.1889 1.3852 6.3288 1.3017 7.2234-0.1456zm17.091-3.8005c-0.2174-0.21279-2.9065-0.0624-5.9758 0.33419l-5.5805 0.7211 5.5805 0.57264c4.768 0.48926 7.405-0.22909 5.9758-1.6279zm10.208 1.3914c0-0.66976-1.3555-0.8729-3.2698-0.49004-2.0603 0.41206-3.4727 0.15402-3.8182-0.69756-0.32405-0.79861-0.58446-0.59813-0.63653 0.49004-0.0659 1.3774 0.89656 1.8416 3.8182 1.8416 2.1485 0 3.9064-0.5148 3.9064-1.144zm-29.578-2.5793c4.0656-0.94287 9.4959-1.667 12.067-1.6091s7.9401-0.46014 11.93-1.1511 9.8847-1.0084 13.099-0.70533 6.1329 0.08442 6.4853-0.48589c0.38942-0.63011 1.4613-0.59785 2.732 0.0822 2.6603 1.4238 3.6746 1.4248 2.7959 0.00301-0.37939-0.61385 0.12286-1.1161 1.1161-1.1161 1.0808 0 1.4862 0.51735 1.0095 1.2886-0.49341 0.79835-0.30617 0.98559 0.49218 0.49218 2.4057-1.4868 1.3022-3.7576-2.0661-4.2519-1.8451-0.2708-3.6222-0.22486-3.9491 0.10208s-2.4586 0.66896-4.7371 0.76002-10.17 0.78836-17.536 1.5495-15.779 1.0687-18.695 0.68333c-2.9519-0.39013-5.3015-0.25078-5.3015 0.3144 0 1.738-6.8672 2.5412-8.7121 1.0191-1.3556-1.1184-1.7901-1.1192-2.1654-0.00405-0.25827 0.76733-0.95959 1.3951-1.5585 1.3951s-0.83472-0.41137-0.52399-0.91415-1.0408-0.66385-3.0034-0.35793l-3.5684 0.55624 3.7308 0.79616c2.0519 0.43789 4.2869 1.3523 4.9667 2.0321 1.6068 1.6068 2.5756 1.5661 11.391-0.47838zm36.554-2.3732c-0.76732-0.30962-2.0229-0.30962-2.7903 0s-0.13951 0.56295 1.3951 0.56295 2.1624-0.25333 1.3951-0.56295zm-86.777-5.9575c0.37939-0.61385 0.18754-1.1161-0.42632-1.1161s-1.4265 0.50225-1.8059 1.1161-0.18754 1.1161 0.42632 1.1161 1.4265-0.50225 1.8059-1.1161zm106.03 0c-0.88389-1.4302-1.6742-1.4302-1.6742 0 0 0.61386 0.53189 1.1161 1.182 1.1161s0.87157-0.50225 0.49218-1.1161zm-94.311-1.1161c0-0.61386-0.50224-1.1161-1.1161-1.1161s-1.1161 0.50225-1.1161 1.1161 0.50225 1.1161 1.1161 1.1161 1.1161-0.50224 1.1161-1.1161zm90.614 0.35368c-0.80569-0.32242-1.7683-0.28276-2.1392 0.08811s0.28833 0.63466 1.4649 0.5862c1.3002-0.05355 1.5647-0.31802 0.67432-0.67431zm-78.895-2.5859c-0.88389-1.4302-1.6742-1.4302-1.6742 0 0 0.61386 0.53189 1.1161 1.182 1.1161s0.87156-0.50224 0.49218-1.1161zm-280.27-6.7926c4.7355-0.07965 5.1927-0.25007 2.693-1.0039-3.6957-1.1146-12.009-7.8708-12.037-9.7822-0.01107-0.76733-1.4013-1.4612-3.0894-1.5421-2.695-0.12901-2.5965-0.2311 0.80764-0.83708 2.6108-0.46476 4.3301-1.6014 5.2645-3.4804 0.76317-1.5346 1.5298-2.5868 1.7036-2.3381 0.5502 0.78723 8.6868-2.5303 8.6868-3.5419 0-1.3217-4.579 0.17401-6.9757 2.2786-1.0742 0.94333-1.9532 1.24-1.9532 0.65938 0-1.7372-24.595 1.0828-28.74 3.2952-3.0248 1.6147-3.6273 2.5804-3.6273 5.814 0 3.0959 0.43727 3.8777 2.1689 3.8777 2.3067 0 5.9394 4.1992 4.9782 5.7546-0.31489 0.50951 4.1007 0.69578 9.8125 0.41394 7.4161-0.36594 9.4278-0.21496 7.0367 0.52809-2.8004 0.87026-2.4553 0.95539 2.109 0.52028 3.0015-0.28614 8.024-0.56342 11.161-0.61618zm-29.454-8.9036c0-3.185 0.24824-3.3951 3.6273-3.0693 3.0225 0.29143 3.6862 0.86154 3.9805 3.419 0.32685 2.8406 0.05658 3.0693-3.6273 3.0693-3.697 0-3.9805-0.24351-3.9805-3.419zm6.0454-0.32759c-0.38705-1.0086-1.78-1.7999-3.0956-1.7584-2.3784 0.07511-2.3777 0.08235 0.11941 1.2867 1.3812 0.66611 2.5112 1.7203 2.5112 2.3427s0.26294 0.86862 0.58432 0.54725 0.26764-1.4096-0.11941-2.4182zm31.38 5.4777c2.1288-0.88947 3.8705-1.9267 3.8705-2.3049s-3.2636-0.5294-7.2524-0.33598c-7.7542 0.37601-8.7326 0.97305-4.7457 2.8958 3.3614 1.6211 3.6598 1.6118 8.1276-0.255zm7.4979-0.55095c1.6881-0.84616 3.0693-1.9601 3.0693-2.4754 0-1.7528-2.1095-0.94422-5.244 2.01-3.2242 3.0387-3.0383 3.0785 2.1747 0.46545zm41.017-4.4626c0-0.57763-0.50225-1.3606-1.1161-1.74-1.824-1.1273-1.2682-3.9064 0.78128-3.9064 1.5111 0 1.6152-0.28214 0.51157-1.3858s-1.6001-1.0469-2.4383 0.27903c-1.2243 1.9365-1.4206 5.9814-0.34264 7.0593 1.087 1.087 2.6042 0.90868 2.6042-0.30616zm-9.6413-1.74c-0.8226-2.1437-1.5197-2.1437-1.5197 0 0 0.92079 0.48649 1.6742 1.0811 1.6742s0.79198-0.75337 0.43864-1.6742zm-29.423-1.9532c0.00102-1.7362-1.3006-1.9532-11.718-1.9532s-11.719 0.21705-11.72 1.9532 1.3015 1.9532 11.718 1.9532 11.719-0.2171 11.72-1.9532zm15.162 0.27902c2.7112 0 4.9295 0.50225 4.9295 1.1161s0.72216 1.1161 1.6048 1.1161c0.92713 0 1.5324-0.96121 1.4333-2.2762-0.15745-2.0902-0.80583-2.2498-7.9331-1.9532-5.4107 0.22521-7.9171 0.79268-8.2748 1.8736-0.31122 0.94046-0.01701 1.2439 0.7478 0.77121 0.6935-0.42861 1.3006-0.12184 1.349 0.68171 0.06776 1.1236 0.21811 1.1388 0.65106 0.06588 0.3311-0.82055 2.5931-1.3951 5.4924-1.3951zm10.51 0c0-0.61385-0.53189-1.1161-1.182-1.1161s-0.87157 0.50225-0.49218 1.1161c0.88389 1.4302 1.6742 1.4302 1.6742 0zm15.625 0c0-0.61385-0.53189-1.1161-1.182-1.1161s-0.87157 0.50225-0.49218 1.1161c0.88389 1.4302 1.6742 1.4302 1.6742 0zm-36.622-0.76242c-0.80569-0.32241-1.7683-0.28276-2.1392 0.08811s0.28833 0.63466 1.4649 0.5862c1.3002-0.05355 1.5647-0.31803 0.67432-0.67431zm26.12-3.4148c-0.77402-0.774-2.8915 0.79863-2.8915 2.1475 0 0.74009 0.6404 0.65541 1.7011-0.22492 0.93562-0.77649 1.4713-1.6416 1.1904-1.9226zm-4.0076 0.763c0-0.65009-0.50224-0.87157-1.1161-0.49218-1.4302 0.88388-1.4302 1.6742 0 1.6742 0.61386 0 1.1161-0.53189 1.1161-1.182zm-37.135-0.74866c-2.3157-0.24161-5.8314-0.23756-7.8127 9e-3s-0.08673 0.44425 4.2103 0.43929 5.9181-0.20668 3.6024-0.44829zm7.2098 0.05211c-0.8057-0.32241-1.7683-0.28277-2.1392 0.0881s0.28834 0.63466 1.4649 0.5862c1.3002-0.05355 1.5647-0.31802 0.67432-0.6743zm4.4644 0c-0.8057-0.32241-1.7683-0.28277-2.1392 0.0881s0.28834 0.63466 1.4649 0.5862c1.3002-0.05355 1.5647-0.31802 0.67432-0.6743zm4.2552-0.35369c0-0.61385-0.50225-1.1161-1.1161-1.1161s-1.1161 0.50225-1.1161 1.1161 0.50224 1.1161 1.1161 1.1161 1.1161-0.50225 1.1161-1.1161zm-16.742-2.2322c1.3863-0.8959 1.2904-1.0819-0.55805-1.0819-1.2277 0-2.9856 0.48685-3.9064 1.0819-1.3863 0.89591-1.2904 1.0819 0.55805 1.0819 1.2277 0 2.9856-0.48685 3.9064-1.0819zm7.9681-2.2693c-2.6776-2.2306-5.7359-2.925-5.7359-1.3022 0 1.8067 2.7571 3.5705 5.5247 3.5344l2.8461-0.03713-2.6349-2.1951zm-79.399 250.04c0-0.61386 0.50225-1.1161 1.1161-1.1161s1.1161 0.50224 1.1161 1.1161-0.50225 1.1161-1.1161 1.1161-1.1161-0.50225-1.1161-1.1161zm10.603-2.2322c0.37938-0.61386 1.8069-1.1161 3.1722-1.1161s10.627-2.1705 20.582-4.8234 18.1-4.4107 18.1-3.9064-0.22349 0.917-0.49664 0.917-9.3139 2.2601-20.091 5.0225c-20.976 5.3768-22.329 5.6253-21.267 3.9064zm-3.9064-2.2575c0-0.51289 2.8879-1.517 6.4176-2.2314s12.062-2.759 18.96-4.5436 13.135-3.2447 13.858-3.2447c3.6165 0-1.4353 1.6095-15.958 5.0843-8.8128 2.1086-17.656 4.2914-19.651 4.8508s-3.6273 0.59739-3.6273 0.08452zm-7.5105-2.8812c0.37088-0.37087 1.3335-0.41051 2.1392-0.0881 0.89035 0.35628 0.62589 0.62075-0.67431 0.6743-1.1766 0.04847-1.8358-0.21531-1.4649-0.5862zm5.2782-1.4277c0-0.68545 0.89153-1.2463 1.9812-1.2463 1.732 0 26.482-5.734 31.781-7.3628 1.0742-0.33023 1.9532-0.14277 1.9532 0.41657s-6.9059 2.5989-15.346 4.5324-16.476 3.8284-17.858 4.2109c-1.5202 0.42099-2.5112 0.2036-2.5112-0.55083zm44.644-6.2029c0-0.2707 0.50225-0.8026 1.1161-1.182s1.1161-0.15791 1.1161 0.49218-0.50225 1.182-1.1161 1.182-1.1161-0.22148-1.1161-0.49218zm-2.2322-3.9722c0-0.61386 0.50225-1.1161 1.1161-1.1161s1.1161 0.50225 1.1161 1.1161-0.50225 1.1161-1.1161 1.1161-1.1161-0.50225-1.1161-1.1161zm261.8-191.21c1.1642-3.0339 19.991-5.5072 23.757-3.121 1.4841 0.94046-13.637 3.1158-18.047 2.5962-1.1147-0.13137-2.9869 0.27496-4.1603 0.90294-1.6567 0.88663-2.0031 0.80213-1.5503-0.37809zm27.269-3.5542c0-0.94933 1.001-1.6742 2.3119-1.6742 2.055 0 2.1259 0.18602 0.63777 1.6742-2.1192 2.1192-2.9497 2.1192-2.9497 0zm6.4734-1.8974c1.0417-1.0417 1.637-1.0417 2.6787 0s0.74407 1.3393-1.3393 1.3393-2.381-0.29763-1.3393-1.3393z"/>
 </g>
</svg>
